<?xml version="1.0" encoding="UTF-8" standalone="no"?>
<svg width="172px" height="104px" viewBox="0 0 172 104" version="1.1" xmlns="http://www.w3.org/2000/svg" xmlns:xlink="http://www.w3.org/1999/xlink">
    <!-- Generator: Sketch 39.1 (31720) - http://www.bohemiancoding.com/sketch -->
    <title>ic_footer_logo</title>
    <desc>Created with Sketch.</desc>
    <defs>
        <polygon id="path-1" points="50.4063805 41.3346886 50.4063805 0.286871781 -1.61413801e-05 0.286871781 -1.61413801e-05 41.3346886 50.4063805 41.3346886"></polygon>
        <polygon id="path-3" points="0.203132209 16.2627179 25.1154489 16.2627179 25.1154489 0.276495244 0.203132209 0.276495244 0.203132209 16.2627179"></polygon>
    </defs>
    <g id="UX" stroke="none" stroke-width="1" fill="none" fill-rule="evenodd">
        <g id="Landing" transform="translate(-634.000000, -5086.000000)">
            <g id="ic_footer_logo" transform="translate(634.000000, 5086.000000)">
                <path d="M4.09868119,88.6049634 C4.31459827,88.6049634 4.50631486,88.5918765 4.67383673,88.5657024 C4.8413586,88.5395282 4.98840336,88.5096154 5.11497544,88.4759629 C5.24154752,88.4423104 5.35322709,88.3806151 5.4500175,88.2908752 C5.54680791,88.2011352 5.62684494,88.1226139 5.69013097,88.055309 C5.75341701,87.988004 5.80739547,87.8777003 5.85206797,87.7243946 C5.89674047,87.5710888 5.93024434,87.4458287 5.95258059,87.3486104 C5.97491684,87.2513921 5.99166877,87.0943496 6.0028369,86.877478 C6.01400502,86.6606065 6.019589,86.486738 6.019589,86.3558672 L6.019589,85.7445169 L6.019589,85.5762553 C6.019589,85.2846005 6.01772767,85.0639931 6.01400497,84.9144265 C6.01028226,84.7648599 5.99725297,84.5741654 5.97491673,84.3423372 C5.95258048,84.110509 5.91721528,83.9366405 5.86882007,83.8207264 C5.82042487,83.7048123 5.74969447,83.5720739 5.65662677,83.4225073 C5.56355906,83.2729407 5.45001817,83.1645066 5.31600068,83.0972016 C5.18198318,83.0298967 5.0126025,82.9700709 4.80785355,82.9177226 C4.6031046,82.8653743 4.36671618,82.8392006 4.09868119,82.8392006 L4.09868119,88.6049634 Z M-1.42108547e-14,100.125272 L-1.42108547e-14,79.9338843 L4.85810986,79.9338843 C6.6077827,79.9338843 7.88092979,80.4237075 8.67758934,81.4033686 C9.47424888,82.3830297 9.87257268,83.8001518 9.87257268,85.6547774 C9.87257268,86.5671335 9.78509035,87.3598245 9.61012307,88.0328741 C9.43515579,88.7059237 9.19132206,89.2611813 8.87861457,89.6986635 C8.56590709,90.1361458 8.16386064,90.487622 7.67246316,90.7531027 C7.18106568,91.0185833 6.6487264,91.2055388 6.07542934,91.3139745 C5.50213229,91.4224103 4.83950017,91.4803665 4.08751312,91.4878448 L4.08751312,100.125272 L-1.42108547e-14,100.125272 Z M11.2685813,100.125272 L11.2685813,85.4865158 L15.0098843,85.4865158 L15.0098843,86.6755642 C15.5831813,85.740773 16.2532587,85.2733845 17.0201366,85.2733845 C17.2360537,85.2733845 17.5748151,85.3107756 18.0364309,85.3855589 L18.0364309,88.5713111 C17.3440071,88.4965278 16.8563397,88.4591367 16.5734139,88.4591367 C16.0596801,88.4591367 15.670663,88.6180488 15.4063507,88.9358778 C15.1420384,89.2537068 15.0098843,89.7080085 15.0098843,90.2987964 L15.0098843,100.125272 L11.2685813,100.125272 Z M24.4580703,96.3674301 L24.4580703,89.1209655 C24.4580703,88.380611 24.1714261,88.0104392 23.598129,88.0104392 C23.0843953,88.0104392 22.8275323,88.380611 22.8275323,89.1209655 L22.8275323,96.3674301 C22.8275323,96.5319533 22.8331163,96.6684308 22.8442844,96.7768665 C22.8554525,96.8853023 22.8833724,97.012432 22.9280449,97.1582594 C22.9727174,97.3040868 23.0508931,97.4143905 23.1625744,97.4891738 C23.2742556,97.5639571 23.4194391,97.6013482 23.598129,97.6013482 C24.1714261,97.6013482 24.4580703,97.1900463 24.4580703,96.3674301 L24.4580703,96.3674301 Z M19.0638932,96.3225603 L19.0638932,90.0968826 C19.0638932,88.5339118 19.4305744,87.3205711 20.1639479,86.4568241 C20.8973214,85.5930771 22.042037,85.1612101 23.598129,85.1612101 C25.1542211,85.1612101 26.3082433,85.5930771 27.0602303,86.4568241 C27.8122174,87.3205711 28.1882053,88.5339118 28.1882053,90.0968826 L28.1882053,96.3225603 C28.1882053,97.5415279 27.7377643,98.5342612 26.836869,99.30079 C25.9359736,100.067319 24.8564044,100.450577 23.598129,100.450577 C22.7865787,100.450577 22.0383256,100.284187 21.3533473,99.9514013 C20.6683689,99.6186157 20.1155551,99.1325316 19.6948891,98.4931345 C19.274223,97.8537373 19.0638932,97.1302199 19.0638932,96.3225603 L19.0638932,96.3225603 Z M32.0746931,98.8128314 C32.0746931,97.8331703 31.8773926,96.4067005 31.4827855,94.5333791 C31.0881784,92.6600577 30.6302922,90.7362864 30.1091131,88.7620075 C29.5879339,86.7877287 29.3050123,85.695909 29.2603399,85.4865158 L32.6889369,85.4865158 L34.0402732,93.6528102 L35.2240885,85.4865158 L38.6750217,85.4865158 L35.4921222,100.517882 C35.3804409,101.026408 35.2091989,101.469493 34.978391,101.847148 C34.7475831,102.224804 34.4851361,102.523933 34.1910422,102.744543 C33.8969482,102.965154 33.5432962,103.142762 33.1300756,103.277372 C32.716855,103.411981 32.3073633,103.50172 31.9015881,103.54659 C31.4958129,103.59146 31.0323427,103.613895 30.5111635,103.613895 L30.0309366,103.613895 L30.0309366,101.000232 C30.7754782,100.985275 31.3022335,100.807667 31.6112183,100.467403 C31.9202031,100.127139 32.0746931,99.575621 32.0746931,98.8128314 L32.0746931,98.8128314 Z M43.432619,91.1401043 L44.895636,91.1401043 L44.895636,89.1209655 C44.895636,88.380611 44.6462182,88.0104392 44.1473754,88.0104392 C43.6708687,88.0104392 43.432619,88.380611 43.432619,89.1209655 L43.432619,91.1401043 Z M39.6689798,96.3225603 L39.6689798,90.0968826 C39.6689798,88.5413901 40.0375224,87.3280495 40.7746186,86.4568241 C41.5117148,85.5855988 42.6359558,85.1499927 44.1473754,85.1499927 C45.6662403,85.1499927 46.7923426,85.5837293 47.5257161,86.4512154 C48.2590896,87.3187016 48.6257709,88.5339118 48.6257709,90.0968826 L48.6257709,93.1255907 L43.432619,93.1255907 L43.432619,96.3674301 C43.432619,97.1900463 43.6708687,97.6013482 44.1473754,97.6013482 C44.6685545,97.6013482 44.9291402,97.1601334 44.9291402,96.2776906 L44.9291402,94.673597 L48.6257709,94.673597 L48.6257709,96.3225603 C48.6257709,97.5415279 48.1864979,98.5342612 47.3079388,99.30079 C46.4293797,100.067319 45.375869,100.450577 44.1473754,100.450577 C42.9188817,100.450577 41.8653711,100.065449 40.9868119,99.2951812 C40.1082528,98.5249133 39.6689798,97.5340496 39.6689798,96.3225603 L39.6689798,96.3225603 Z M50.1669644,96.3786475 L50.1669644,90.0968826 C50.1669644,88.5413901 50.5355069,87.3280495 51.2726032,86.4568241 C52.0096994,85.5855988 53.1339404,85.1499927 54.6453599,85.1499927 C56.1642248,85.1499927 57.2903271,85.5837293 58.0237006,86.4512154 C58.7570742,87.3187016 59.1237554,88.5339118 59.1237554,90.0968826 L59.1237554,91.3756704 L55.4271247,91.3756704 L55.4271247,89.7042723 C55.4271247,89.1209626 55.3768689,88.6928347 55.2763558,88.4198757 C55.1758426,88.1469167 54.9655128,88.0104392 54.6453599,88.0104392 C54.1688532,88.0104392 53.9306035,88.380611 53.9306035,89.1209655 L53.9306035,96.3674301 C53.9306035,97.1900463 54.1688532,97.6013482 54.6453599,97.6013482 C54.8240499,97.6013482 54.967372,97.5639571 55.0753305,97.4891738 C55.1832891,97.4143905 55.2614648,97.2872608 55.30986,97.1077809 C55.3582552,96.928301 55.3898977,96.7432152 55.4047885,96.5525178 C55.4196794,96.3618204 55.4271247,96.0944742 55.4271247,95.750471 L55.4271247,94.1912472 L59.1237554,94.1912472 L59.1237554,96.3786475 C59.1237554,97.186307 58.9152869,97.9060854 58.4983436,98.5380042 C58.0814003,99.169923 57.5341704,99.6466593 56.8566375,99.9682275 C56.1791046,100.289796 55.4420194,100.450577 54.6453599,100.450577 C53.4168662,100.450577 52.3633556,100.074797 51.4847965,99.3232248 C50.6062373,98.5716528 50.1669644,97.5901368 50.1669644,96.3786475 L50.1669644,96.3786475 Z M60.9664867,95.0998596 L60.9664867,88.0104392 L59.8943521,88.0104392 L59.8943521,85.4865158 L60.9664867,85.4865158 L60.9664867,80.6742352 L64.7301259,80.6742352 L64.7301259,85.4865158 L66.539353,85.4865158 L66.539353,88.0104392 L64.7301259,88.0104392 L64.7301259,96.0084721 C64.7301259,96.4123018 64.8045789,96.7133001 64.9534872,96.9114758 C65.1023956,97.1096515 65.3667039,97.2087379 65.7464201,97.2087379 C66.1782543,97.2087379 66.5430742,97.1863032 66.8408908,97.1414333 L66.8408908,100.069184 C66.3494934,100.218751 65.5565684,100.293533 64.4620922,100.293533 C64.0228127,100.293533 63.6263502,100.241186 63.2726929,100.136489 C62.9190356,100.031792 62.6212234,99.8915759 62.3792474,99.7158351 C62.1372714,99.5400944 61.9288029,99.3176175 61.7538356,99.0483976 C61.5788683,98.7791778 61.4411302,98.5043533 61.340617,98.223916 C61.2401039,97.9434786 61.1619282,97.6163066 61.1060876,97.2423902 C61.050247,96.8684737 61.0130204,96.5207367 60.9944069,96.1991685 C60.9757934,95.8776004 60.9664867,95.5111677 60.9664867,95.0998596 L60.9664867,95.0998596 Z M73.3853791,96.3674301 L73.3853791,89.1209655 C73.3853791,88.380611 73.0987348,88.0104392 72.5254378,88.0104392 C72.0117041,88.0104392 71.754841,88.380611 71.754841,89.1209655 L71.754841,96.3674301 C71.754841,96.5319533 71.760425,96.6684308 71.7715931,96.7768665 C71.7827613,96.8853023 71.8106812,97.012432 71.8553537,97.1582594 C71.9000262,97.3040868 71.9782019,97.4143905 72.0898831,97.4891738 C72.2015644,97.5639571 72.3467478,97.6013482 72.5254378,97.6013482 C73.0987348,97.6013482 73.3853791,97.1900463 73.3853791,96.3674301 L73.3853791,96.3674301 Z M67.9912019,96.3225603 L67.9912019,90.0968826 C67.9912019,88.5339118 68.3578832,87.3205711 69.0912567,86.4568241 C69.8246302,85.5930771 70.9693458,85.1612101 72.5254378,85.1612101 C74.0815298,85.1612101 75.235552,85.5930771 75.9875391,86.4568241 C76.7395261,87.3205711 77.115514,88.5339118 77.115514,90.0968826 L77.115514,96.3225603 C77.115514,97.5415279 76.6650731,98.5342612 75.7641777,99.30079 C74.8632823,100.067319 73.7837131,100.450577 72.5254378,100.450577 C71.7138874,100.450577 70.9656343,100.284187 70.280656,99.9514013 C69.5956777,99.6186157 69.0428638,99.1325316 68.6221978,98.4931345 C68.2015318,97.8537373 67.9912019,97.1302199 67.9912019,96.3225603 L67.9912019,96.3225603 Z M87.7586834,93.2938522 L89.8359442,93.2938522 L88.8196499,85.8006041 L87.7586834,93.2938522 Z M82.6660441,100.125272 L87.0104228,79.9338843 L90.6065409,79.9338843 L94.9397516,100.125272 L90.9304149,100.125272 L90.1039778,95.8065582 L87.4794817,95.8065582 L86.6977169,100.125272 L82.6660441,100.125272 Z M96.1123988,100.125272 L96.1123988,79.9338843 L99.8760379,79.9338843 L99.8760379,100.125272 L96.1123988,100.125272 Z M102.020307,84.2077279 L102.020307,80.6742352 L105.783946,80.6742352 L105.783946,84.2077279 L102.020307,84.2077279 Z M102.020307,100.125272 L102.020307,85.4865158 L105.783946,85.4865158 L105.783946,100.125272 L102.020307,100.125272 Z M107.905879,100.125272 L107.905879,85.4865158 L111.669518,85.4865158 L111.669518,86.5297375 C112.019453,86.1184294 112.43639,85.7856487 112.920342,85.5313856 C113.404294,85.2771224 113.90313,85.1499927 114.416863,85.1499927 C114.900815,85.1499927 115.347534,85.3070352 115.757032,85.6211251 C116.166529,85.9352149 116.47551,86.3278213 116.683981,86.798956 C117.048807,86.3053863 117.497386,85.9071712 118.029733,85.6042989 C118.562081,85.3014266 119.126063,85.1499927 119.721696,85.1499927 C120.23543,85.1499927 120.697038,85.3145135 121.106536,85.6435599 C121.516034,85.9726064 121.823153,86.3782997 122.027902,86.8606519 C122.232651,87.3430041 122.335024,87.8346969 122.335024,88.3357449 L122.335024,100.125272 L118.571385,100.125272 L118.571385,89.0873132 C118.571385,88.9527033 118.567662,88.8423996 118.560217,88.7563988 C118.552771,88.670398 118.534158,88.5600943 118.504376,88.4254844 C118.474595,88.2908745 118.418755,88.188049 118.336855,88.1170049 C118.254956,88.0459607 118.150722,88.0104392 118.024149,88.0104392 C117.756114,88.0104392 117.41363,88.2871332 116.996687,88.8405296 L116.996687,100.125272 L113.233048,100.125272 L113.233048,89.0648783 C113.233048,88.3619154 113.061806,88.0104392 112.719317,88.0104392 C112.436391,88.0104392 112.082739,88.2908723 111.65835,88.851747 L111.65835,100.125272 L107.905879,100.125272 Z M127.941394,91.1401043 L129.404411,91.1401043 L129.404411,89.1209655 C129.404411,88.380611 129.154994,88.0104392 128.656151,88.0104392 C128.179644,88.0104392 127.941394,88.380611 127.941394,89.1209655 L127.941394,91.1401043 Z M124.177755,96.3225603 L124.177755,90.0968826 C124.177755,88.5413901 124.546298,87.3280495 125.283394,86.4568241 C126.02049,85.5855988 127.144731,85.1499927 128.656151,85.1499927 C130.175016,85.1499927 131.301118,85.5837293 132.034492,86.4512154 C132.767865,87.3187016 133.134546,88.5339118 133.134546,90.0968826 L133.134546,93.1255907 L127.941394,93.1255907 L127.941394,96.3674301 C127.941394,97.1900463 128.179644,97.6013482 128.656151,97.6013482 C129.17733,97.6013482 129.437916,97.1601334 129.437916,96.2776906 L129.437916,94.673597 L133.134546,94.673597 L133.134546,96.3225603 C133.134546,97.5415279 132.695273,98.5342612 131.816714,99.30079 C130.938155,100.067319 129.884644,100.450577 128.656151,100.450577 C127.427657,100.450577 126.374146,100.065449 125.495587,99.2951812 C124.617028,98.5249133 124.177755,97.5340496 124.177755,96.3225603 L124.177755,96.3225603 Z M134.854429,100.125272 L134.854429,85.4865158 L138.618068,85.4865158 L138.618068,86.51852 C138.975448,86.107212 139.405414,85.7781704 139.90798,85.5313856 C140.410546,85.2846007 140.933578,85.1612101 141.477094,85.1612101 C141.990827,85.1612101 142.450575,85.3238613 142.85635,85.6491686 C143.262125,85.974476 143.56366,86.3745606 143.760964,86.8494344 C143.958267,87.3243083 144.056917,87.8160011 144.056917,88.3245275 L144.056917,100.125272 L140.293278,100.125272 L140.293278,88.9863563 C140.293278,88.3357416 140.08481,88.0104392 139.667866,88.0104392 C139.623194,88.0104392 139.576661,88.0160479 139.528266,88.0272654 C139.47987,88.0384829 139.431476,88.0571784 139.383081,88.0833526 C139.334686,88.1095267 139.291875,88.1319614 139.254648,88.1506572 C139.217421,88.169353 139.172749,88.2011354 139.120631,88.2460054 C139.068513,88.2908754 139.029425,88.3245274 139.003366,88.3469623 C138.977307,88.3693973 138.93822,88.408658 138.886102,88.4647454 C138.833984,88.5208329 138.80048,88.558224 138.785589,88.5769198 C138.770698,88.5956156 138.740917,88.6311372 138.696245,88.6834855 L138.618068,88.773225 L138.618068,100.125272 L134.854429,100.125272 Z M146.335203,95.0998596 L146.335203,88.0104392 L145.263069,88.0104392 L145.263069,85.4865158 L146.335203,85.4865158 L146.335203,80.6742352 L150.098843,80.6742352 L150.098843,85.4865158 L151.90807,85.4865158 L151.90807,88.0104392 L150.098843,88.0104392 L150.098843,96.0084721 C150.098843,96.4123018 150.173296,96.7133001 150.322204,96.9114758 C150.471112,97.1096515 150.735421,97.2087379 151.115137,97.2087379 C151.546971,97.2087379 151.911791,97.1863032 152.209608,97.1414333 L152.209608,100.069184 C151.71821,100.218751 150.925285,100.293533 149.830809,100.293533 C149.391529,100.293533 148.995067,100.241186 148.64141,100.136489 C148.287752,100.031792 147.98994,99.8915759 147.747964,99.7158351 C147.505988,99.5400944 147.29752,99.3176175 147.122552,99.0483976 C146.947585,98.7791778 146.809847,98.5043533 146.709334,98.223916 C146.608821,97.9434786 146.530645,97.6163066 146.474804,97.2423902 C146.418964,96.8684737 146.381737,96.5207367 146.363124,96.1991685 C146.34451,95.8776004 146.335203,95.5111677 146.335203,95.0998596 L146.335203,95.0998596 Z M158.653583,96.8161276 L158.653583,93.2153302 C157.417644,94.2174263 156.799684,95.3167241 156.799684,96.5132568 C156.799684,96.8123899 156.857385,97.0685188 156.972789,97.2816512 C157.088193,97.4947836 157.283632,97.6013482 157.559112,97.6013482 C157.715466,97.6013482 157.869956,97.5508702 158.022587,97.4499128 C158.175218,97.3489553 158.285037,97.2610863 158.352045,97.186303 C158.419054,97.1115197 158.519566,96.9881291 158.653583,96.8161276 L158.653583,96.8161276 Z M159.413012,100.125272 L159.044466,98.6109176 C158.828549,99.2914455 158.474897,99.7681818 157.983499,100.041141 C157.492102,100.3141 156.881587,100.450577 156.151936,100.450577 C155.615866,100.450577 155.146812,100.345882 154.744759,100.136489 C154.342707,99.9270958 154.028143,99.6447931 153.801057,99.2895725 C153.573972,98.9343519 153.406453,98.5529628 153.298494,98.1453939 C153.190536,97.737825 153.136557,97.3096971 153.136557,96.8609973 C153.136557,96.3524709 153.188674,95.8813433 153.29291,95.4476002 C153.397146,95.0138571 153.5293,94.6305985 153.689377,94.2978129 C153.849453,93.9650272 154.072812,93.6453335 154.359461,93.338722 C154.646109,93.0321105 154.925308,92.7722425 155.197066,92.5591101 C155.468824,92.3459777 155.816892,92.1253703 156.24128,91.8972813 C156.665669,91.6691922 157.04538,91.4784977 157.380423,91.325192 C157.715467,91.1718862 158.136127,90.9905395 158.642415,90.7811463 L158.642415,89.5472281 C158.642415,89.0312234 158.57913,88.6460953 158.452558,88.3918321 C158.325986,88.1375689 158.110072,88.0104392 157.80481,88.0104392 C157.596338,88.0104392 157.426958,88.053439 157.296663,88.1394397 C157.166368,88.2254405 157.075163,88.3544398 157.023045,88.5264413 C156.970927,88.6984429 156.937423,88.8536159 156.922533,88.991965 C156.907642,89.1303141 156.900196,89.3153999 156.900196,89.5472281 L156.900196,90.3773185 L153.248238,90.3773185 C153.248238,88.6946945 153.668898,87.4028325 154.51023,86.5016939 C155.351562,85.6005552 156.572592,85.1499927 158.173356,85.1499927 C159.290169,85.1499927 160.269226,85.5575555 161.110558,86.3726934 C161.95189,87.1878312 162.37255,88.1562603 162.37255,89.2780096 L162.37255,96.2328208 C162.37255,97.4368318 162.532624,98.7343024 162.852777,100.125272 L159.413012,100.125272 Z M164.438643,100.125272 L164.438643,85.4865158 L168.179946,85.4865158 L168.179946,86.6755642 C168.753243,85.740773 169.42332,85.2733845 170.190198,85.2733845 C170.406115,85.2733845 170.744877,85.3107756 171.206492,85.3855589 L171.206492,88.5713111 C170.514069,88.4965278 170.026401,88.4591367 169.743475,88.4591367 C169.229742,88.4591367 168.840724,88.6180488 168.576412,88.9358778 C168.3121,89.2537068 168.179946,89.7080085 168.179946,90.2987964 L168.179946,100.125272 L164.438643,100.125272 Z" id="Proyecto-Alimentar" fill="#FEB949"></path>
                <g id="Page-1" transform="translate(60.756219, 0.000000)">
                    <path d="M32.4089128,18.7604971 C32.4089128,18.7604971 32.5081668,18.528463 32.6946265,18.0931448 C32.7379425,17.9836619 32.7999046,17.8674996 32.8440812,17.7292665 C32.8851023,17.5904526 32.9301395,17.4391513 32.9786191,17.2753625 C33.02423,17.1112833 33.0856183,16.9399439 33.1286474,16.7505994 C33.162497,16.5592221 33.1983547,16.3562285 33.2365072,16.1413283 C33.3698977,15.286374 33.4189509,14.2246508 33.1857328,13.0702883 C32.9616942,11.9199914 32.5024295,10.6846056 31.7611803,9.54098809 C31.6636475,9.40217417 31.5652542,9.26190823 31.4657134,9.12019026 C31.3655988,8.98050513 31.2795405,8.83094621 31.1599194,8.70171568 C30.9315779,8.43744652 30.7313488,8.14907368 30.4708789,7.90339048 C30.3458074,7.7764832 30.2256126,7.64463902 30.102836,7.51395647 C29.968585,7.39489014 29.8331866,7.2749526 29.6963538,7.15414383 C29.6283677,7.09373945 29.561529,7.03217345 29.4961247,6.9682842 C29.4301466,6.9070086 29.3656029,6.86954627 29.3007723,6.81785406 C29.1716847,6.72085857 29.0443184,6.62124942 28.9180995,6.5181554 C28.8713411,6.46849603 28.7583178,6.4005411 28.6625062,6.33752307 L28.3678998,6.14585533 L28.0712854,5.95302596 L27.9224044,5.85603046 C27.8329038,5.80056298 28.0233796,5.91759647 27.9981358,5.90278578 L27.9823584,5.89436401 L27.9505168,5.87781089 L27.8871205,5.84441423 C27.5466163,5.67162286 27.2170129,5.4590459 26.8472489,5.33039619 C26.1329646,5.00833629 25.3524154,4.81463571 24.5480568,4.68598599 C23.739682,4.55762668 22.9006132,4.5791167 22.0520779,4.6610111 C21.841235,4.69556938 21.6295314,4.73012765 21.417541,4.76468593 C21.2018214,4.7884992 20.9995843,4.86952238 20.7870202,4.91714891 L20.4688912,4.99613925 C20.3630395,5.0243086 20.2629249,5.06903108 20.1590812,5.10417017 C19.9542623,5.18170848 19.7411245,5.24559773 19.5374531,5.33242903 C18.7196119,5.67946381 17.9485292,6.15572912 17.2199018,6.7173737 L16.7001094,7.17418183 L16.568727,7.28860166 L16.4600067,7.40592556 L16.2385499,7.63941172 L16.0113558,7.87318829 C15.973777,7.90629454 15.9333296,7.95914837 15.8925953,8.01635829 L15.771253,8.18014709 L15.285884,8.83501189 L14.9496827,9.38387862 C14.8134237,9.58367772 14.7153172,9.80148198 14.6120471,10.018415 L14.4545604,10.3436694 L14.374813,10.5068774 L14.3131378,10.6764743 L14.0635686,11.359218 C13.7856002,12.2882258 13.6238105,13.261956 13.6088937,14.2461409 C13.6131966,15.2274216 13.7371206,16.2136393 14.0116468,17.1565865 C14.0781985,17.392396 14.1699941,17.6192028 14.2506021,17.8500753 L14.3765341,18.1944964 L14.5334472,18.5235261 C14.6421676,18.7407495 14.7328157,18.968718 14.8547317,19.1775196 C14.9803769,19.3848693 15.1051615,19.5913477 15.2296592,19.7972454 L15.3237496,19.9517412 L15.4321832,20.0952016 L15.6487633,20.3812512 C15.7959231,20.569434 15.9275924,20.7715564 16.0971273,20.9376684 C16.258917,21.1119119 16.4198461,21.285284 16.5802015,21.457785 C16.7431386,21.6273819 16.9238611,21.762711 17.0933961,21.9172068 C17.4135331,22.2279409 17.8403825,22.4930812 18.2239159,22.7689666 L18.3521428,22.8578308 L18.5018843,22.9394348 L18.8005068,23.1023524 C19.0010227,23.2057368 19.1912117,23.3303208 19.3974648,23.4151193 C21.0196646,24.168722 22.7451344,24.425731 24.2973401,24.3127632 C25.8561436,24.1844039 27.2273399,23.686939 28.3205677,23.0733118 C29.4255569,22.4657831 30.2322104,21.7063723 30.8308896,21.0512171 C30.9771888,20.8833626 31.1154559,20.7245107 31.2459777,20.5752422 C31.3690411,20.4230696 31.4628447,20.2720586 31.5618118,20.1376008 C31.6581972,20.0028526 31.7471241,19.8779781 31.8288796,19.7638487 C31.9103481,19.6491385 31.9783342,19.5100341 32.0423043,19.4043265 C32.2950289,18.9617482 32.4298537,18.7256484 32.4298537,18.7256484 L32.4089128,18.7604971 Z M33.7694952,19.602964 C33.7694952,19.602964 33.6122953,19.8242531 33.3174021,20.2392428 C33.239089,20.3437888 33.1711029,20.4570471 33.0603745,20.5883104 C32.9482118,20.718993 32.8260089,20.8615822 32.6937659,21.0157876 C32.5598018,21.1665081 32.4226821,21.3390091 32.2634742,21.5001842 C32.1002502,21.6538088 31.9269861,21.8170168 31.7436818,21.9898082 C30.9972691,22.6551276 30.0222281,23.4017606 28.7640551,23.9648572 C28.4551056,24.1138353 28.1180437,24.2279648 27.7827031,24.3664883 C27.6163236,24.4399609 27.4367485,24.4846834 27.2577472,24.5372468 C27.0787458,24.5886486 26.8974496,24.6409216 26.7135716,24.6937755 C26.3455287,24.7957079 25.956545,24.8532082 25.5658401,24.9365546 C25.1699717,24.9926029 24.7611946,25.0236763 24.3469671,25.0649139 C22.6808775,25.1558109 20.8570143,24.8863144 19.0750329,24.1634947 C18.84956,24.0804387 18.6398645,23.9573067 18.4186946,23.8547935 L18.0896648,23.6921663 L17.9244328,23.6105623 L17.7523161,23.5071779 C17.3461207,23.2516209 16.9336144,23.0352686 16.5208212,22.6957844 C15.6717122,22.0830284 14.9485353,21.3407515 14.2712561,20.5038024 C13.5977061,19.6656916 13.0612758,18.6995119 12.6057403,17.6746703 C12.5067732,17.4115627 12.4075192,17.1478744 12.3079784,16.8833148 C12.199258,16.6199169 12.1484836,16.3390946 12.0661544,16.0649516 L11.9511231,15.6496715 C11.9149786,15.5102768 11.8963326,15.3676876 11.8682203,15.2259696 C11.8200276,14.9416624 11.7577787,14.6561937 11.7224948,14.36724 C11.5804985,13.2073598 11.6223802,12.0137924 11.7967918,10.8225483 L11.9795224,9.93623021 L12.0271413,9.71348906 L12.09398,9.49684643 L12.2293784,9.06181872 C12.3194528,8.77112264 12.4075192,8.4775225 12.5366067,8.2013467 L12.7164687,7.77996807 L12.8074037,7.56855273 L12.8530146,7.46284507 L12.8759635,7.40999124 L12.8874379,7.38356432 C12.9078051,7.34755402 12.8581781,7.42712517 12.9359174,7.29615221 L13.3266223,6.5791406 L13.424442,6.39996029 C13.4548493,6.34129835 13.488412,6.28089397 13.5391864,6.2109062 L13.8160075,5.80724231 L14.097992,5.40386882 L14.2411357,5.20261769 L14.3908772,5.02488942 L14.9973017,4.31833241 C15.8561639,3.42330211 16.8372291,2.63717395 17.9169744,2.02383716 C19.0041782,1.42937674 20.1651053,0.976053478 21.3647586,0.713817152 C21.6636679,0.646443035 21.9674539,0.607528675 22.2689449,0.56019255 C22.4201207,0.538702529 22.5710097,0.514018047 22.7218987,0.496012895 L23.1774342,0.47016679 C23.4806464,0.458840968 23.7841455,0.428348372 24.0859234,0.437350948 C24.3877014,0.449257581 24.6894793,0.462325837 24.9895361,0.481783017 C26.1811573,0.606367052 27.3615909,0.835787536 28.4358859,1.28765877 C28.9883805,1.47642246 29.4906743,1.75898718 29.999566,2.01309215 L30.0942302,2.0615899 L30.1415623,2.08598397 L30.1653718,2.09818101 C30.1536105,2.08975925 30.3558476,2.21608572 30.2789688,2.16845918 L30.427276,2.26603549 L30.722743,2.4608977 L31.0164888,2.65430788 C31.115169,2.72022997 31.2029485,2.77134137 31.3308886,2.87646822 C31.563533,3.06842638 31.7941694,3.2589325 32.0233714,3.448277 C32.1335261,3.54411087 32.2560158,3.63907353 32.3535486,3.73635943 C32.4496471,3.83277412 32.5437376,3.93093123 32.6361068,4.02995957 C32.8205586,4.22743543 33.0032891,4.42316886 33.1848722,4.61774066 C33.3538334,4.82276707 33.5093122,5.03708645 33.6650778,5.24646895 C34.2993278,6.07760999 34.7456837,6.99122625 35.112866,7.87173626 C35.7981773,9.66731456 35.9751706,11.4184608 35.9071845,12.912598 C35.8541152,14.4148666 35.5052921,15.6682575 35.1819995,16.6530231 C35.0933594,16.8972543 35.009596,17.1284172 34.930996,17.3462214 C34.8472326,17.5608312 34.747118,17.7536606 34.6653626,17.9366162 C34.5810254,18.1175389 34.5029992,18.2853934 34.4315708,18.4387276 C34.3610029,18.5923522 34.2749446,18.7210019 34.2098271,18.8415203 C33.9364484,19.3154623 33.7904361,19.5681153 33.7904361,19.5681153 L33.7694952,19.602964 Z" id="Fill-1" fill="#FDB949"></path>
                    <path d="M18.5765543,22.4853855 L19.0045511,22.7188717 C19.0719635,22.7534299 19.1468342,22.7955388 19.221705,22.8376476 C19.3396049,22.9041505 19.4511939,22.9671685 19.5596274,23.0116006 C21.0381098,23.6981196 22.6620308,23.995495 24.2664452,23.8781711 C25.5934648,23.7689786 26.9247874,23.3589258 28.1118189,22.6921543 C28.9810081,22.2147274 29.7434851,21.5996482 30.5148547,20.7554389 L30.9236318,20.2867241 C30.9827252,20.2129611 31.0418186,20.1267106 31.0983303,20.0448162 C31.1384908,19.9867351 31.177504,19.9306868 31.2168039,19.8769617 L31.4804293,19.5084369 C31.5237454,19.4474517 31.5624716,19.3763023 31.598903,19.3103802 C31.6250073,19.2633345 31.6502511,19.2180312 31.6749212,19.177084 L32.0205889,18.5715882 L32.2999916,17.9199179 C32.3131872,17.8859404 32.3335544,17.8400563 32.3547821,17.7927202 C32.3817471,17.7320254 32.4115806,17.6678457 32.4345295,17.5958251 L32.5667725,17.1503428 C32.5819761,17.0948753 32.6014827,17.0312765 32.621563,16.9662256 C32.6519703,16.8669069 32.6843856,16.7635225 32.7093425,16.6531683 L32.8128994,16.0642256 C32.9683781,15.0695861 32.9523139,14.0885958 32.764133,13.1575552 C32.5314886,11.9642783 32.0607494,10.7971378 31.4015425,9.78013716 L31.1149682,9.37240759 C31.0845609,9.32971796 31.0527194,9.28296264 31.0214515,9.23591692 C30.9623581,9.14792401 30.9064202,9.06457758 30.8458925,8.9995267 C30.7563918,8.89614228 30.6792261,8.80059882 30.6023474,8.70505535 C30.4617854,8.52994073 30.3286818,8.3646999 30.1772191,8.22211071 C30.0682119,8.11117574 29.9732609,8.00924335 29.8777361,7.90702055 L29.8045865,7.82803021 L29.4133079,7.48186664 C29.3401583,7.41710617 29.2681562,7.35089368 29.1975883,7.28235794 C29.1783686,7.26435279 29.1516905,7.24663804 29.125873,7.22805208 C29.0954657,7.20627165 29.0650585,7.18449123 29.0343643,7.16009715 C28.9104403,7.06687693 28.7781973,6.96378291 28.6473886,6.85720403 L28.6057938,6.81770886 C28.5865741,6.80289817 28.5375208,6.7735672 28.4899019,6.74278419 L27.6886987,6.23108939 C27.5877235,6.17997799 27.4824455,6.12218726 27.3765937,6.06410613 C27.1479654,5.93865088 26.9322458,5.82045577 26.7076335,5.74233664 L26.6723496,5.72839717 C26.0676463,5.45570624 25.3510672,5.25532632 24.4807304,5.116222 C23.808041,5.00935271 23.0495802,5.00238298 22.0926114,5.09444158 L21.4861869,5.19492194 C21.3645578,5.20886141 21.25469,5.24051563 21.1385112,5.27391228 C21.0530266,5.29859677 20.9675419,5.32299084 20.8803362,5.34244802 L20.5713867,5.41940553 C20.5249152,5.43160257 20.4738539,5.45164056 20.4227926,5.47109774 C20.3803372,5.48677964 20.3384555,5.50275196 20.2954263,5.51727224 C20.2260059,5.54398956 20.1402344,5.57361094 20.0544629,5.60352273 C19.9371367,5.64417952 19.8189499,5.68483632 19.7044923,5.73362447 C18.9686935,6.04610098 18.2208464,6.49332572 17.4810315,7.06397287 L16.773632,7.70402698 L16.2937133,8.20178231 C16.2796571,8.216593 16.2618717,8.24331032 16.2420782,8.27089886 L15.6416779,9.0811307 L15.3152299,9.6134443 C15.2016329,9.78100838 15.1201643,9.95321895 15.0335322,10.1355937 L14.7704806,10.6789427 L14.4675552,11.5103742 C14.1996269,12.4065661 14.052754,13.3376067 14.0392715,14.252675 C14.0435744,15.2330845 14.1732356,16.1713853 14.4242391,17.0333093 C14.4669815,17.1843203 14.5206245,17.3312656 14.5777099,17.486923 C14.6041011,17.559234 14.6307792,17.6318354 14.6563098,17.7050177 L14.7727754,18.0238831 L14.9210827,18.3340364 C14.9586615,18.4092514 14.9973877,18.4931787 15.036114,18.5771059 C15.0986497,18.712435 15.1577431,18.8402135 15.2248686,18.9552141 L15.6786829,19.7041703 L15.990501,20.1165464 C16.0303747,20.1676578 16.073117,20.2251581 16.1161462,20.2829488 C16.2105235,20.4098561 16.2997373,20.5300841 16.3964095,20.6247563 L16.8938268,21.1596836 C16.9767296,21.2456437 17.0756967,21.3298613 17.1804011,21.4187254 C17.2478134,21.4759354 17.3155127,21.5334357 17.3812039,21.5932593 C17.6046687,21.8101923 17.8923904,22.0091202 18.1703589,22.2013687 C18.2724815,22.2722277 18.3743172,22.3425059 18.4732843,22.4136553 L18.5765543,22.4853855 Z M32.7391761,18.9055547 L32.8025724,18.9435979 L32.4144492,19.6225663 C32.3897792,19.6638039 32.3696989,19.7001047 32.3490449,19.737567 C32.297123,19.8307872 32.2408982,19.930106 32.1783625,20.0180989 L31.9101473,20.3930126 C31.8722817,20.4449952 31.838432,20.4937834 31.8037218,20.5437331 C31.7354489,20.6430519 31.6634467,20.7467267 31.5791096,20.8509824 L31.1536945,21.3394447 C30.3091753,22.2632252 29.4767042,22.9334815 28.5260464,23.4562117 C28.0300634,23.7344203 27.5105579,23.9716817 26.9761356,24.1653823 L27.2480799,24.0872632 C27.3794623,24.0495105 27.5042469,24.014081 27.6103856,23.9673257 C27.7420548,23.9127294 27.8642577,23.8653933 27.9853131,23.818638 C28.1958692,23.7373244 28.3952377,23.6600765 28.5788288,23.5715027 C29.5811217,23.122826 30.5200182,22.5001962 31.4592016,21.6626662 L31.9698145,21.181464 C32.0581677,21.0920191 32.1473815,20.9871826 32.2328661,20.8869927 C32.2807719,20.8309444 32.3278172,20.7760577 32.3742887,20.7240751 L32.7357337,20.302406 C32.7945403,20.2324183 32.8407249,20.165625 32.8837541,20.1034781 C32.9141614,20.0593365 32.9437081,20.0169373 32.9744022,19.9756996 L33.4233399,19.3411632 L33.838428,18.6218284 C33.8576477,18.5861085 33.8851863,18.5381915 33.9144462,18.4888226 C33.9563279,18.4170924 34.0019388,18.3407157 34.0415257,18.255046 L34.2761781,17.7503209 C34.3022825,17.691659 34.334124,17.6248657 34.3662525,17.55633 C34.4213298,17.4395869 34.4795626,17.3173261 34.5306239,17.1860627 L34.7781851,16.5027382 C35.0739389,15.6016093 35.425057,14.3647716 35.4772657,12.8967709 C35.5544314,11.1984785 35.2965432,9.5620425 34.7113464,8.02870053 C34.4150189,7.31807784 33.9844403,6.37716345 33.3246597,5.51291616 L33.2380276,5.39617307 C33.1141036,5.2288994 32.9890321,5.0598833 32.8544942,4.89696572 L32.3235142,4.32893221 C32.2340136,4.23338875 32.1436523,4.1387165 32.0507093,4.04578668 C31.9939108,3.98915757 31.9259247,3.93310928 31.8585123,3.87648017 L31.0593172,3.21406482 C30.9755537,3.14552908 30.9115837,3.10429148 30.8476136,3.06276346 L30.0449761,2.53393473 C30.0200192,2.51825282 29.9810061,2.49414915 29.9603521,2.4813713 L29.8048734,2.40150974 C29.7004559,2.34952712 29.5920224,2.29405964 29.483302,2.23830175 C29.0831307,2.03298494 28.7050477,1.83928435 28.2985655,1.70047044 L28.2710268,1.69001583 C27.361677,1.30755156 26.2738995,1.0540274 24.9451586,0.914923083 C24.6657559,0.897208337 24.3674203,0.884430487 24.0690847,0.872523854 C23.8892227,0.867296552 23.6990338,0.878331968 23.4985179,0.889948195 C23.396969,0.895756308 23.2951333,0.901854828 23.1932976,0.905630101 L22.7460811,0.930895395 C22.6732183,0.940478783 22.574825,0.955289472 22.4764316,0.969809756 L22.1230187,1.02295399 C21.8918086,1.05780268 21.6732204,1.09061852 21.4583614,1.13911627 C20.3327182,1.38479947 19.2110911,1.81140541 18.1213056,2.40702745 C17.1161442,2.97825541 16.1672075,3.7243076 15.3060503,4.62195154 L14.5797179,5.47167855 L13.8926854,6.45905785 C13.8505168,6.51742939 13.8269942,6.56040943 13.8057665,6.60193744 L13.4543616,7.24692845 L13.4586645,7.25041332 L13.2016369,7.74323175 L12.9314137,8.37428328 C12.8160955,8.62228973 12.7374956,8.87726591 12.654019,9.14734319 L12.4437498,9.82456923 L12.2182769,10.9115577 C12.0444391,12.1025114 12.0200559,13.2554219 12.1497171,14.3133698 C12.1723791,14.4992294 12.2068025,14.6827658 12.2406521,14.8657214 C12.2584375,14.9612648 12.2762229,15.0565179 12.2925739,15.1520614 C12.3006061,15.1930086 12.3097856,15.245572 12.319252,15.2981354 C12.3330214,15.3788682 12.3465038,15.459601 12.3671578,15.5388817 L12.480468,15.9471921 C12.5082935,16.0389603 12.5346848,16.1408927 12.5607891,16.2422443 C12.6046789,16.4118412 12.6459869,16.5718547 12.7050803,16.7156055 L13.0080057,17.5194484 C13.4887849,18.5994671 14.0143146,19.4933358 14.6052485,20.2289334 C15.3333021,21.1289006 16.0217689,21.8006089 16.7707633,22.3410539 C17.0734019,22.5890603 17.3559601,22.7589476 17.6551563,22.9389992 C17.7635898,23.0043404 17.8717364,23.0693913 17.9795962,23.1370558 L18.0825794,23.1992027 L17.9807437,23.1280533 C17.8800554,23.0560327 17.7825226,22.9883681 17.684703,22.9207036 C17.3777615,22.7084171 17.0604931,22.48858 16.7957203,22.2315709 C16.7472407,22.1880101 16.6872867,22.1371891 16.6273328,22.0860777 C16.5108671,21.9873398 16.3900986,21.8848266 16.2719118,21.7616946 L15.783961,21.2363507 C15.6522917,21.1079914 15.5384078,20.9546572 15.4282532,20.8062599 C15.3898138,20.7545677 15.3510875,20.7025851 15.3112138,20.6517641 L14.9578009,20.1804356 L14.4876355,19.4044717 C14.3961268,19.247943 14.325272,19.0943184 14.2564254,18.9459211 C14.2214283,18.8701252 14.1867181,18.7946198 14.1494262,18.7202759 L13.9727197,18.3456526 L13.8470745,18.0012315 C13.8209701,17.9265972 13.7960132,17.8580615 13.7707694,17.7898161 C13.7105286,17.6254465 13.6482797,17.4555592 13.598079,17.2760885 C13.3247004,16.3392398 13.1832778,15.319335 13.178688,14.2480285 C13.1936048,13.2432249 13.3528128,12.2314515 13.6520089,11.2330368 L13.9890708,10.3139028 L14.2575728,9.75893755 C14.3545319,9.55420155 14.4549333,9.34249581 14.5954953,9.13659818 L14.9414498,8.57350158 L15.5487348,7.75455757 C15.5940589,7.69124913 15.6485625,7.61893812 15.7139669,7.55824333 L16.4193584,6.84413578 L16.9380034,6.38848927 C17.7575657,5.7556953 18.568809,5.27100823 19.3711597,4.93065277 C19.5031158,4.87431407 19.6393748,4.82668754 19.775347,4.77935142 C19.8533732,4.75234369 19.9313995,4.72533596 20.0077045,4.69629539 C20.0561841,4.67945186 20.0891731,4.66696442 20.122449,4.65447698 C20.2007621,4.6248556 20.2793621,4.59610544 20.3602569,4.57490582 L20.6846969,4.49417304 C20.7644443,4.47616789 20.8335778,4.4561299 20.9027113,4.43609191 C21.041839,4.39601592 21.1990389,4.35071264 21.3705819,4.33183627 L21.9830304,4.2310655 C23.0418349,4.12826189 23.8685687,4.13726447 24.6149815,4.25574998 C25.5527306,4.40588972 26.3350009,4.6248556 27.0056823,4.92484466 C27.270742,5.0189361 27.5076893,5.14555297 27.7363176,5.27042742 L27.7512344,5.24516212 L28.1212853,5.46848409 C28.1379232,5.47835788 28.1534137,5.48823167 28.1683305,5.49810547 L28.2133677,5.52569401 L28.212794,5.52685563 L28.9520352,6.00776743 C29.045265,6.0678814 29.1339051,6.12509132 29.2038993,6.19217503 C29.3206517,6.28713769 29.4385517,6.37890588 29.5573122,6.46835083 C29.5857114,6.49042166 29.6040706,6.50348992 29.6227165,6.51684858 C29.677507,6.55576294 29.7320106,6.59612933 29.7876617,6.64811194 C29.8547872,6.71345322 29.9167492,6.77037273 29.9798587,6.82613062 L30.5045277,7.30965607 C30.5943152,7.40636116 30.6838159,7.50248544 30.7756115,7.59599607 C30.9586289,7.76820664 31.1166894,7.96481128 31.2695864,8.15473659 C31.3401542,8.24243911 31.4101483,8.32985121 31.4835848,8.41464967 C31.5805439,8.5186149 31.6617256,8.63971407 31.733154,8.74658336 C31.7598321,8.78636894 31.7865102,8.82586411 31.8140488,8.86477847 L32.1120976,9.28877076 C32.8407249,10.4123503 33.3547801,11.6860696 33.6077916,12.9859254 C33.8163397,14.0168656 33.8344119,15.102402 33.6614346,16.2094284 L33.5521405,16.8274117 C33.5180041,16.9804555 33.4798515,17.1056203 33.4431333,17.2252675 C33.4256348,17.2824774 33.4081363,17.3385257 33.3926457,17.3934124 L33.2560998,17.8545766 C33.2199553,17.9684156 33.1783605,18.0633783 33.1387736,18.151952 C33.1227094,18.1876719 33.1072189,18.2219398 33.0937364,18.2556268 L32.8037198,18.9337241 L32.7391761,18.9055547 Z M23.7274331,25.5166399 C22.1000698,25.5166399 20.4537736,25.1919664 18.9150504,24.5675942 C18.7587111,24.5103843 18.6052404,24.432846 18.4566463,24.3576309 C18.384931,24.3213302 18.312642,24.2847391 18.2392056,24.2507616 L17.7047832,23.9850404 L17.5326666,23.881656 C17.4225119,23.812249 17.318955,23.7501022 17.215685,23.6879554 C16.9030063,23.4997725 16.5797138,23.3054911 16.2498235,23.0339618 C15.4583736,22.4638955 14.7171244,21.7422374 13.9385832,20.7795426 C13.2988829,19.9835406 12.7349138,19.0266539 12.2134003,17.853415 L11.9058851,17.0385366 C11.8287195,16.851225 11.7776582,16.6537491 11.7283181,16.4626622 C11.7047955,16.372346 11.6815597,16.281449 11.6543079,16.1917137 L11.5366948,15.767431 C11.5080087,15.657948 11.4896496,15.5536924 11.4712905,15.4491464 C11.4635452,15.4032623 11.4555131,15.3573782 11.4466204,15.3114941 C11.428835,15.2089809 11.4119102,15.1180839 11.3949854,15.0268965 C11.358554,14.8311631 11.3206884,14.6284599 11.2954446,14.4202391 C11.1563169,13.2847529 11.1818476,12.0525616 11.3714628,10.7585139 L11.6164422,9.58324211 L11.8324487,8.88772052 C11.9210888,8.60079971 12.0123106,8.30458592 12.1474222,8.01534187 L12.5140308,7.16648608 L12.5168994,7.1679381 C12.5306687,7.1371551 12.5473066,7.10521048 12.5673869,7.07152342 L13.0481662,6.18927098 C13.0779998,6.13060903 13.1227501,6.04900503 13.1918836,5.95375197 L13.9142,4.91932695 L14.672374,4.03271842 C15.6072545,3.05724576 16.622743,2.25950136 17.7062175,1.64384133 C18.8734556,1.00582006 20.0719614,0.550754365 21.2739097,0.287937228 C21.5163073,0.233340961 21.760713,0.196749846 21.9967998,0.161029947 L22.3507864,0.107885709 C22.4577856,0.0919133965 22.5647848,0.0759410843 22.6720709,0.0634536403 L23.153137,0.0352842897 C23.2569808,0.0315090159 23.3527924,0.0257009023 23.4488909,0.0201831945 C23.659447,0.0079861561 23.8774614,-0.00479169366 24.0989182,0.0018876369 C24.4078677,0.0140846753 24.7133748,0.0274433364 25.0165871,0.0469005167 C26.4402789,0.195588223 27.6029272,0.467698342 28.5874346,0.879783996 C29.0472731,1.03805509 29.4663772,1.2532457 29.8719989,1.46088575 C29.9778506,1.51519162 30.0837024,1.56949748 30.1895542,1.62235131 L30.361384,1.71034423 L30.3579417,1.71731397 C30.3765876,1.72544533 30.3955205,1.7344479 30.415027,1.7446121 L30.4156007,1.74374088 L30.415027,1.7446121 C30.4531796,1.76465009 30.4933401,1.78846336 30.5343613,1.8160519 L31.313763,2.33036035 C31.3937973,2.38234297 31.4838717,2.44129532 31.6017716,2.53800041 L32.4072777,3.20506225 C32.4944835,3.27824448 32.5811156,3.35200752 32.6554126,3.42606097 C32.7561009,3.52683174 32.8539205,3.62847372 32.9494453,3.73098693 L33.4976369,4.31847761 C33.6591398,4.51275901 33.7933908,4.69368174 33.9264943,4.87315245 L34.0088235,4.98408742 C34.7262632,5.92413059 35.187536,6.93067667 35.5091073,7.70228455 C36.1424967,9.36166258 36.4193177,11.1171649 36.3369886,12.9324908 C36.2813375,14.5067799 35.9087049,15.8214464 35.590289,16.7905302 L35.3349826,17.4959256 C35.27216,17.6571007 35.2061819,17.7979475 35.1427856,17.9321149 C35.1129521,17.9948425 35.0842659,18.0558277 35.0575879,18.1156513 L34.8209274,18.624442 C34.7692924,18.7365386 34.7099121,18.838471 34.6542611,18.9337241 C34.6307385,18.9738001 34.6080764,19.0127144 34.5874224,19.0501768 L34.1189782,19.8572141 L33.6665981,20.4937834 C33.6356171,20.5353114 33.6123814,20.5689984 33.5879982,20.6038471 C33.5309128,20.6866127 33.4695245,20.7743153 33.388056,20.8710203 L33.0188657,21.3014016 C32.970673,21.355417 32.927357,21.4059476 32.8834672,21.4573494 C32.784787,21.5726405 32.6812301,21.6931588 32.5670594,21.8084499 L32.0366531,22.3088188 C31.0217384,23.2137229 30.0108397,23.883108 28.937979,24.3631486 C28.7340207,24.4618865 28.5094084,24.5484274 28.2919677,24.6326451 C28.1772232,24.6770771 28.0610444,24.7217996 27.9451525,24.7697165 C27.7945504,24.8365099 27.6350556,24.8818131 27.4810112,24.9259548 L26.8312707,25.1126857 C26.5693665,25.1852871 26.3048805,25.2358177 26.0490003,25.2846058 C25.9184785,25.3095807 25.7868092,25.3345556 25.6548531,25.3627249 L25.6255933,25.3679522 C25.3261102,25.4103515 25.0174476,25.4391016 24.7191121,25.4669806 L24.3889349,25.4983444 C24.1689124,25.5105414 23.9483161,25.5166399 23.7274331,25.5166399 L23.7274331,25.5166399 Z" id="Fill-3" fill="#FDB949"></path>
                    <path d="M5.80107827,60.9535378 C0.255191678,53.5966908 -3.18714211,36.7531616 6.75718648,29.9768355 C16.7018019,23.2007999 23.5864695,34.6233263 23.5864695,34.6233263 C23.5864695,34.6233263 37.5193155,19.9096324 47.081545,29.3960242 C57.0336189,39.2695268 38.5976265,61.396116 32.7645919,65.1403164 C32.7645919,65.1403164 52.5580112,39.0038056 41.9934888,32.3000809 C33.6650491,27.0155688 23.56266,37.0917746 23.56266,37.0917746 C23.56266,37.0917746 15.592223,29.399509 8.0004427,34.1151164 C-2.51932935,40.6492441 5.80107827,60.9535378 5.80107827,60.9535378" id="Fill-5" fill="#FDB949"></path>
                    <g id="Group-9" transform="translate(0.000000, 25.486293)">
                        <mask id="mask-2" fill="white">
                            <use xlink:href="#path-1"></use>
                        </mask>
                        <g id="Clip-8"></g>
                        <path d="M36.6751405,4.85479881 C38.6851766,4.85479881 40.5506346,5.38420836 42.2221745,6.44476989 C43.9292852,7.52827347 44.987516,9.15773972 45.3670333,11.2887366 C46.115454,15.4897451 44.2720843,21.5932012 39.8885591,29.4303792 C38.1137492,32.6039324 36.2591918,35.4330645 34.9390568,37.3509036 C40.1877553,32.500548 48.5566424,21.5380241 49.4634105,12.836018 C49.8366169,9.25589684 48.933578,6.35735778 46.7803982,4.22084322 C44.6883198,2.14531385 42.2052497,1.10653275 39.3983134,1.15967699 C31.7090003,1.28106656 23.9743631,9.35695801 23.8971975,9.43856201 L23.5107955,9.84658198 L23.2193446,9.36421815 C23.187503,9.31165473 19.9864194,4.09742081 14.9583172,2.98749031 C12.3395618,2.40958302 9.66142612,3.03685928 6.99763349,4.85218516 C3.82867838,7.01135136 1.8608109,10.3260418 1.14824781,14.7044881 C0.180665152,20.6511252 1.75209052,27.2288137 4.14422564,31.9476156 C3.5487019,29.9560134 2.89064242,27.3377159 2.52948424,24.5550487 C1.50452935,16.661532 3.31863926,11.0259194 7.77560093,8.25777253 C14.7098955,3.94989472 21.9901446,9.66217438 23.5535378,11.0154648 C24.3231863,10.2996148 26.5325909,8.36522263 29.4580009,6.84059283 C31.9972957,5.51750456 34.426436,4.85479881 36.6751405,4.85479881 L36.6751405,4.85479881 Z M30.9499657,41.3346886 L32.4232846,39.3889706 C32.5612648,39.2063054 46.2267562,21.0216828 44.5202192,11.4432324 C44.1854522,9.56372685 43.258317,8.13057484 41.7649179,7.18298112 C33.823167,2.14415223 23.9634624,11.8178557 23.8647822,11.9160128 L23.5678809,12.2116458 L23.266103,11.9212401 C23.1886505,11.8466059 15.4428257,4.51821863 8.22539921,9.00004943 C-1.86436798,15.2672943 6.11696976,35.10055 6.19872519,35.3003491 L7.46665147,38.3946216 L5.45919715,35.7316015 C1.94227947,31.0662343 -0.959321054,22.2971445 0.299138806,14.5627702 C1.04096174,10.003401 3.19098605,6.39569133 6.51685421,4.12936543 C9.38517883,2.17493523 12.2885005,1.50496934 15.1470719,2.1374729 C19.6806255,3.14082451 22.7210668,7.08685684 23.654513,8.4508923 C25.3395353,6.78164047 32.2417014,0.401427766 39.3848309,0.288459958 C42.4203956,0.238800588 45.119759,1.35395838 47.3825197,3.59879426 C49.73306,5.93075184 50.7212967,9.06945639 50.3191173,12.9274958 C49.2092515,23.5789952 37.7419771,36.9748282 32.9952857,40.0217646 L30.9499657,41.3346886 Z" id="Fill-7" fill="#FDB949" mask="url(#mask-2)"></path>
                    </g>
                    <path d="M9.29183422,57.0291407 C9.42952757,57.5228303 9.58959609,58.0037421 9.77806386,58.468972 C10.0540243,59.141842 10.3750219,59.785381 10.7522443,60.3865207 C11.5009519,61.5908331 12.4464463,62.6377455 13.531642,63.4746947 C14.6174114,64.3107726 15.8357107,64.942405 17.1188407,65.3266117 C17.7602622,65.5174082 18.4154531,65.6570933 19.078676,65.7230154 C19.2450555,65.7343412 19.4102875,65.7567025 19.5763801,65.7662859 L20.0729368,65.7860335 L20.5436759,65.782839 L21.0752296,65.7523464 C22.4065522,65.6521564 23.712631,65.3001848 24.921177,64.720535 C26.1314442,64.1426277 27.2404494,63.3303631 28.1873781,62.3365948 C29.133733,61.3419554 29.9102661,60.1611659 30.4690717,58.8552116 C30.7510562,58.20267 30.9716524,57.5173126 31.1431954,56.809594 C31.1807742,56.6321561 31.2249508,56.4541375 31.2585135,56.2740859 L31.3488748,55.7310273 L31.3870273,55.4522379 C31.2106077,55.5951175 31.0330407,55.7353834 30.850597,55.8727453 C30.429198,56.1898683 29.9968982,56.4907286 29.5539846,56.7756165 C28.6684442,57.3442308 27.7438908,57.8530216 26.7814716,58.28137 C26.3015529,58.498303 25.8104466,58.690842 25.3127425,58.8645046 C24.8161859,59.0419424 24.307581,59.1854028 23.7963945,59.3152142 C23.2831999,59.4400886 22.7639812,59.5402786 22.2401727,59.6137512 C21.9776948,59.6488903 21.7163643,59.6779309 21.450444,59.7008729 C21.1833763,59.7182973 20.9114319,59.7409489 20.6578467,59.7418201 C20.1285878,59.7601157 19.607648,59.737464 19.0829789,59.714522 C18.5600311,59.6799637 18.0370832,59.6395973 17.5178645,59.5707712 C16.4782797,59.4412502 15.4478745,59.2429032 14.4341072,58.9824093 C13.4194793,58.7251098 12.4217762,58.4024691 11.4441534,58.0269746 C10.9556289,57.8385013 10.4722678,57.6355077 9.99493089,57.4174131 C9.76372081,57.3102534 9.53623991,57.2022225 9.30933275,57.0886739 L9.29183422,57.0291407 Z M32.1945415,54.5725991 C32.2338415,54.7625244 32.2708465,54.9524497 32.3046962,55.1426654 L32.3830092,55.7501941 C32.4171457,56.153858 32.43321,56.5569411 32.4300545,56.9652514 C32.4220224,57.7801298 32.3138757,58.5990738 32.1242605,59.4040783 C31.7418746,61.013797 31.001486,62.5552703 29.9756705,63.8891036 C28.9501419,65.2238081 27.6328755,66.3444836 26.1406238,67.152973 C25.3950717,67.5589601 24.6027612,67.8781159 23.7895098,68.1226375 C22.9736767,68.3601894 22.1340341,68.5114907 21.2898018,68.5826401 L20.6868196,68.6113903 L20.0215886,68.6116807 C19.5915838,68.5971604 19.1721928,68.5687006 18.7499332,68.5141044 C17.9091431,68.3979421 17.0781064,68.2048223 16.2800587,67.9187727 C14.6833895,67.3501584 13.2126524,66.4458351 11.9980823,65.2853741 C10.7835122,64.1254938 9.81937187,62.7164455 9.1988912,61.1845555 C8.89051547,60.4181749 8.66016597,59.6253674 8.52935728,58.8212341 C8.3948194,58.0185528 8.34576615,57.208321 8.40055663,56.4111574 L8.45305222,55.645648 L8.94186361,56.0687691 L8.94243734,56.0690595 C9.36670498,56.3127099 9.83285434,56.5409687 10.292119,56.7529649 C10.7551129,56.9646706 11.2252784,57.1621465 11.7006073,57.3453925 C12.6521257,57.7110132 13.6237244,58.0252322 14.6105268,58.2755619 C15.5967554,58.5287956 16.5979008,58.721625 17.6062178,58.8470802 C18.1099459,58.9141639 18.6165427,58.9527879 19.1228526,58.9864749 C19.6285889,59.0085458 20.1394886,59.0306166 20.6417824,59.0129019 C20.9042604,59.0117402 21.1466581,58.989379 21.3945061,58.9736971 C21.6423541,58.9524975 21.8942182,58.9243281 22.1429268,58.8912219 C22.6412046,58.8215245 23.136327,58.7256907 23.6265727,58.6066243 C24.1153841,58.4823307 24.6019006,58.3452592 25.0786638,58.1747911 C25.5562876,58.0083886 26.0284611,57.8234002 26.4905944,57.6140177 C27.4171559,57.2019321 28.3110152,56.7102753 29.1675826,56.1602469 C29.5955795,55.8849423 30.013823,55.5936654 30.4205921,55.2878683 C30.8247795,54.9838135 31.22868,54.6568167 31.588117,54.3260447 L32.055127,53.8959538 L32.1945415,54.5725991 Z" id="Fill-10" fill="#FDB949"></path>
                    <g id="Group-14" transform="translate(7.745251, 52.784426)">
                        <mask id="mask-4" fill="white">
                            <use xlink:href="#path-3"></use>
                        </mask>
                        <g id="Clip-13"></g>
                        <path d="M2.2789684,5.12307558 C2.32802165,5.25811421 2.37879608,5.3902488 2.43071794,5.51918892 C2.70725209,6.19293009 3.02365994,6.81585026 3.37018821,7.36849226 C4.09250458,8.53011497 4.99296173,9.53056252 6.04717645,10.3439888 C7.10167803,11.1559631 8.26203138,11.75507 9.49553432,12.124466 C10.1438405,12.3172954 10.7763693,12.4456547 11.3756223,12.5048975 C11.4436084,12.509544 11.5247901,12.5173849 11.6062586,12.5255163 C11.6891615,12.533938 11.7720644,12.5420694 11.8549673,12.5467159 L12.3446392,12.5661731 L12.7952981,12.5626882 L13.3056241,12.5330668 C14.5787139,12.4369425 15.8213964,12.1035568 16.9917899,11.542493 C18.1555855,10.986947 19.2120951,10.2156295 20.1326326,9.24974024 C21.0514488,8.28385096 21.79069,7.15591531 22.3294153,5.89758751 C22.5893115,5.29586695 22.8076128,4.63141877 22.9797295,3.92137689 L23.0204638,3.73755009 C23.0247667,3.71838332 23.0290696,3.69950695 23.0333725,3.68034018 C22.7097931,3.91469756 22.3767473,4.1420852 22.0396855,4.35872784 C21.104805,4.95899637 20.1527129,5.47591847 19.2092265,5.89555467 C18.7456589,6.10551798 18.2396359,6.30647871 17.7075084,6.49204793 C17.2640211,6.65031903 16.7700462,6.7972643 16.1558765,6.95350255 C15.6188724,7.0838947 15.0812946,7.18698872 14.553757,7.26075176 C14.2820994,7.29705247 14.0141711,7.32696425 13.741653,7.35048711 L13.5735524,7.36181293 C13.3558248,7.37691403 13.1306388,7.39230553 12.9140586,7.39288634 C12.3736122,7.4114723 11.8374687,7.38794944 11.3191106,7.3652978 C10.8024737,7.33132034 10.2580113,7.29008273 9.7164174,7.21835253 C8.68084865,7.08941241 7.62577335,6.88816128 6.58303307,6.62040724 C5.58533,6.36717349 4.56324372,6.04046711 3.54632095,5.64958107 C3.11975842,5.48521145 2.69434334,5.3086448 2.2789684,5.12307558 L2.2789684,5.12307558 Z M1.08046252,3.71780251 C1.0362859,4.43771818 1.07902821,5.19306334 1.20811573,5.96409041 C1.33031858,6.71391787 1.54689874,7.47739439 1.85211901,8.23564361 C2.44592159,9.70132106 3.37822032,11.0668086 4.54804008,12.1839992 C5.71470438,13.2985762 7.14241231,14.1767629 8.67798004,14.7233064 C9.4152132,14.987866 10.217277,15.1809858 11.0629436,15.2980193 C11.4327077,15.3456458 11.8354607,15.3767192 12.2904225,15.3918203 L12.9413104,15.3912395 L13.5242123,15.3630701 C14.3400454,15.2939536 15.1530099,15.1443947 15.9249532,14.9196207 C16.7384915,14.6750991 17.5021158,14.3602993 18.1914432,13.9848048 C19.6274701,13.206808 20.9062971,12.1186579 21.8908046,10.8370977 C22.8790412,9.55234295 23.5947598,8.05878656 23.9607946,6.51789404 C24.1481149,5.72102086 24.247082,4.93285986 24.2545404,4.17635307 C24.257409,3.78633825 24.2419185,3.39109612 24.2092164,3.00311414 L24.1329113,2.41475224 C24.1286084,2.39181019 24.1243055,2.36886814 24.1202894,2.34534528 L24.0299281,3.0063086 L23.9375589,3.56214507 C23.9137494,3.69108519 23.8864976,3.81160354 23.8592458,3.93154109 L23.8182246,4.11711031 C23.6320517,4.88726617 23.3973993,5.59934088 23.1182834,6.24549351 C22.5391108,7.59820315 21.7430711,8.8129701 20.7519658,9.85436485 C19.7588525,10.8966308 18.6171451,11.7298047 17.359259,12.3300732 C16.0936276,12.9370211 14.7488225,13.297705 13.3618489,13.4025414 L12.8225499,13.4333244 L12.3305831,13.4370997 L11.8139461,13.4170617 C11.7121104,13.4112536 11.6168725,13.4019606 11.5219215,13.3926676 C11.4496325,13.3854075 11.3773435,13.3781473 11.3050544,13.3732104 C10.6389629,13.3072883 9.95279099,13.1687648 9.25227606,12.9599632 C7.91751114,12.5603649 6.66421478,11.9136315 5.52566288,11.0371872 C4.38911901,10.160162 3.41924146,9.08275697 2.64270833,7.83401256 C2.27064942,7.24071377 1.93157955,6.57307112 1.63553884,5.85170342 C1.44764479,5.38763515 1.27868357,4.88726617 1.13267125,4.36308392 L1.60082864,4.2292069 L1.69262421,4.04131443 C1.46944623,3.92950825 1.26806971,3.82292936 1.08046252,3.71780251 L1.08046252,3.71780251 Z M12.2766532,16.2627469 C11.7800965,16.2464842 11.3509522,16.2133779 10.9502072,16.1616857 C10.0425785,16.0362305 9.18285566,15.8288808 8.39140576,15.5448641 C6.74424904,14.9582446 5.21068934,14.0152974 3.95767984,12.8176644 C2.69921998,11.6162561 1.69577968,10.1456417 1.0555056,8.56554446 C0.725902137,7.74631005 0.49182344,6.91981549 0.35958045,6.10784122 C0.215863014,5.24882123 0.170538953,4.4031599 0.226190016,3.59670334 L0.33720528,1.96810831 L1.44477618,2.92557582 C1.79589422,3.12566533 2.2043845,3.33185336 2.72532434,3.57230926 C3.17512263,3.77791648 3.64098513,3.97364991 4.10828194,4.15399183 C5.06783249,4.52251664 6.03082536,4.83034665 6.97000876,5.06847931 C7.95021331,5.32026103 8.94017113,5.50931512 9.91320415,5.63041429 C10.3833696,5.69285151 10.8495189,5.73031384 11.4057427,5.76748577 C11.8850877,5.78839498 12.3925451,5.81046581 12.8813565,5.79304147 C13.084741,5.79217025 13.2634555,5.7793924 13.4418831,5.76690496 L13.6226057,5.75470792 C13.8543895,5.73437952 14.0993689,5.70708139 14.3417666,5.67484636 C14.815948,5.60834346 15.3013171,5.51541364 15.7806621,5.39867056 C16.3414756,5.25608138 16.7907002,5.12249476 17.1897241,4.97961517 C17.6882887,4.80595258 18.1383739,4.62706268 18.5695262,4.43220047 C19.4427315,4.04363768 20.323969,3.56504912 21.1917239,3.00805104 C21.6085332,2.740297 22.0213264,2.45279538 22.4189159,2.15367754 C22.8520763,1.82784237 23.2338885,1.51333302 23.5534518,1.21944248 L24.5769724,0.276495244 L24.8704313,1.69890225 C24.9108787,1.89289324 24.9484575,2.08717464 24.9828809,2.28145603 L25.0646363,2.90931311 C25.1019283,3.34346959 25.1179925,3.76571944 25.1151239,4.18390362 C25.1070918,5.0066229 25.0000925,5.85983478 24.7975686,6.7205972 C24.4028476,8.38229848 23.6323386,9.99056512 22.5698049,11.3723153 C21.5121478,12.7491286 20.1389435,13.9180115 18.5984992,14.7526374 C17.8583974,15.1557205 17.0399825,15.4931719 16.1664903,15.7556986 C15.3368879,15.9976065 14.4676986,16.1576201 13.5801502,16.2322543 L12.9616776,16.2618757 L12.2766532,16.2627469 Z" id="Fill-12" fill="#FDB949" mask="url(#mask-4)"></path>
                    </g>
                    <path d="M10.0756249,49.789211 C9.45112821,49.7895014 9.11263206,50.4269419 8.99014235,50.6900494 C8.86822636,50.9540282 8.78761837,51.2572117 8.74143373,51.5720115 C8.69295419,51.88594 8.67316078,52.2204873 8.69238047,52.5422568 L8.41842808,52.6073077 C8.29708581,52.2701467 8.2159041,51.92892 8.16914574,51.568817 C8.12783773,51.210166 8.12238737,50.8367043 8.18607055,50.4524976 C8.25319605,50.0711949 8.39404488,49.6745008 8.64619583,49.3242715 C8.77155415,49.1506089 8.91900078,48.9865297 9.08681455,48.8474254 C9.12754884,48.8108343 9.17201231,48.7806321 9.21504149,48.7472355 L9.28073269,48.6984473 L9.36478301,48.6487879 L9.47206908,48.5834467 C9.53030189,48.5552773 9.59398506,48.5268175 9.65594707,48.500681 C9.89633671,48.4057184 10.1370132,48.3508317 10.4017861,48.3514125 C10.6613954,48.3531549 10.9167018,48.408332 11.1444696,48.4960345 C11.6057423,48.6734724 11.9471071,48.9577796 12.2374105,49.2470236 C12.4494009,49.4636663 12.6350001,49.6896019 12.8013796,49.9219264 L12.8162963,49.9428356 C13.0592677,49.7604609 13.3051077,49.6024802 13.5546769,49.4555349 C14.1840503,49.0890429 14.8372331,48.7980564 15.5191021,48.5802522 C16.2001105,48.3659328 16.9135341,48.22073 17.6507673,48.2369927 C18.0179496,48.2465761 18.3914428,48.3000107 18.7488718,48.4243043 C19.105727,48.5474363 19.4427889,48.7475259 19.7101435,49.0120854 L19.3762371,49.4186534 C18.533439,48.9598124 16.9115261,48.9842065 15.2058497,49.7009277 C13.4625945,50.4336212 12.4189937,51.9097533 12.4189937,51.9097533 C12.4189937,51.9097533 11.1298397,49.7886302 10.0756249,49.789211" id="Fill-15" fill="#FDB949"></path>
                    <path d="M10.0760552,49.3535735 C11.0129437,49.3535735 11.9549957,50.4745394 12.456429,51.1828388 C12.9300368,50.6551717 13.8213144,49.8112528 15.041048,49.2986868 C15.9658883,48.9098336 16.9082272,48.7001607 17.7429931,48.6763474 C17.7085698,48.6748954 17.6741465,48.6734434 17.6394363,48.6725722 C17.0307169,48.6603751 16.381837,48.7646308 15.6468987,48.9963745 C14.99974,49.2028529 14.367498,49.4848368 13.7693925,49.8330332 C13.5083489,49.9866578 13.2800074,50.1373784 13.0723199,50.2927454 L12.7223493,50.5555626 L12.4673298,50.1977828 C12.289189,49.9483243 12.1185066,49.7444595 11.9320469,49.5539534 C11.7008368,49.3233713 11.4053698,49.062587 10.9914291,48.9031543 C10.797511,48.8282296 10.5924053,48.7881536 10.3990609,48.786992 C10.2171909,48.7930905 10.0204042,48.8244543 9.81242983,48.9063487 C9.77140868,48.9237731 9.72264229,48.9455535 9.67559706,48.9676243 L9.42803589,49.1296707 C9.40938991,49.1436102 9.38988336,49.1572592 9.37209796,49.1732315 C9.22780681,49.2937499 9.10474337,49.4270461 8.99401497,49.5809611 C8.81558734,49.8286771 8.6910896,50.1234389 8.62310351,50.4579863 C8.96905805,49.7450403 9.48311323,49.3538639 10.0754815,49.3535735 L10.0760552,49.3535735 Z M8.14433225,53.1201351 L8.01381043,52.7559664 C7.88271488,52.3903456 7.79378792,52.0206592 7.74243978,51.6257075 C7.69051791,51.1761595 7.69711572,50.7707532 7.76165948,50.3804479 C7.84972585,49.8806598 8.03016151,49.4404048 8.29866355,49.0678143 C8.45242112,48.8540757 8.62568526,48.666764 8.81386617,48.5108162 C8.83882309,48.4878741 8.87783621,48.4579624 8.91770991,48.428341 L9.2854659,48.1907891 C9.35058338,48.1594253 9.42143808,48.1274807 9.49057162,48.0984401 C9.80468458,47.9744369 10.0978567,47.915775 10.3964791,47.915775 L10.4027901,47.915775 C10.6994045,47.9178078 11.008354,47.9776314 11.29751,48.0891471 C11.8637739,48.3069514 12.2584948,48.6565998 12.5393319,48.9368413 C12.6689931,49.0689759 12.7906223,49.2048858 12.9070879,49.3480558 C13.0424864,49.2583204 13.1856301,49.1688755 13.3388139,49.0791401 C13.9917099,48.6984183 14.681611,48.3911691 15.3895843,48.1646526 C16.2171787,47.9044491 16.958141,47.7850924 17.6600903,47.8016455 C18.1075937,47.8132618 18.5203869,47.8841207 18.8890034,48.0124801 C19.3172871,48.1600061 19.7056971,48.3981388 20.0112043,48.7007415 L20.2949099,48.9818542 L19.4822323,49.9706855 L19.1727091,49.8022502 C18.5249766,49.4499881 17.0596899,49.3936494 15.3709383,50.1034009 C13.7596392,50.780627 12.778861,52.1493089 12.7691077,52.1632484 L12.392459,52.6958524 L12.0528154,52.1382735 C11.5685938,51.3437236 10.6354345,50.2247905 10.0760552,50.2247905 C9.75046782,50.2247905 9.51782343,50.578795 9.37926949,50.8755896 C9.28144984,51.0878762 9.20973455,51.344014 9.16699224,51.6358717 C9.1208076,51.9361511 9.1053171,52.2393347 9.12195504,52.5158009 L9.14404335,52.8822928 L8.14433225,53.1201351 Z" id="Fill-17" fill="#FDB949"></path>
                    <path d="M31.5402686,50.7373856 C31.5402686,50.7373856 29.1079729,44.8299533 23.8087869,47.9582032 C20.9571002,49.6413945 19.222164,53.6922633 19.5050091,56.1761031 L19.9378825,56.1659389 C19.9378825,56.1659389 20.6280705,51.0060108 24.1016721,49.3727693 C28.368158,47.3666469 29.4381501,51.3173257 29.7407886,51.8853592 L31.5402686,50.7373856 Z" id="Fill-19" fill="#FDB949"></path>
                    <path d="M26.7663827,47.4809796 C25.9055124,47.4809796 24.9881304,47.7658676 24.0254244,48.3341915 C22.4244524,49.2794619 21.1748852,51.0367067 20.4890002,52.8049868 C21.1459122,51.3445367 22.21447,49.7798309 23.9204332,48.9777304 C25.3036777,48.3272217 26.5280011,48.2014761 27.5592669,48.6042687 C28.9448063,49.1452945 29.6137665,50.5011986 29.9341904,51.2472508 L30.9849628,50.5769945 C30.6180673,49.8721799 29.6134796,48.2360343 27.9571433,47.6755514 C27.5738968,47.54574 27.1765941,47.4809796 26.7663827,47.4809796 L26.7663827,47.4809796 Z M19.1226805,56.620627 L19.0776433,56.2259657 C18.7755785,53.5760139 20.5552651,49.3744246 23.5919772,47.5817504 C25.2391339,46.6094721 26.8010929,46.3637889 28.2362592,46.8513801 C30.7308038,47.6993647 31.8891491,50.4529913 31.9373418,50.5697344 L32.07733,50.9097994 L29.5807774,52.5026745 L29.3621892,52.0920409 C29.3271922,52.0261188 29.282155,51.9207016 29.2256433,51.7862437 C28.9674683,51.1668084 28.4296036,49.877988 27.2494569,49.4171142 C26.4445245,49.1026049 25.4459608,49.2208 24.2830257,49.7679243 C21.0673123,51.2797762 20.3708134,56.1754351 20.3642156,56.2245137 L20.3143017,56.5924577 L19.1226805,56.620627 Z" id="Fill-21" fill="#FDB949"></path>
                </g>
            </g>
        </g>
    </g>
</svg>