<?xml version="1.0" encoding="UTF-8" standalone="no"?>
<svg width="18px" height="34px" viewBox="0 0 18 34" version="1.1" xmlns="http://www.w3.org/2000/svg" xmlns:xlink="http://www.w3.org/1999/xlink">
    <!-- Generator: Sketch 39.1 (31720) - http://www.bohemiancoding.com/sketch -->
    <title>ic_facebook</title>
    <desc>Created with Sketch.</desc>
    <defs></defs>
    <g id="UX" stroke="none" stroke-width="1" fill="none" fill-rule="evenodd">
        <g id="Landing" transform="translate(-1369.000000, -27.000000)" fill="#FEB949">
            <path d="M1386.35714,32.5446429 L1383.20312,32.5446429 C1382.05133,32.5446429 1381.27456,32.7857119 1380.87277,33.2678571 C1380.47098,33.7500024 1380.27009,34.4732095 1380.27009,35.4375 L1380.27009,39.234375 L1386.15625,39.234375 L1385.37277,45.1808036 L1380.27009,45.1808036 L1380.27009,60.4285714 L1374.12277,60.4285714 L1374.12277,45.1808036 L1369,45.1808036 L1369,39.234375 L1374.12277,39.234375 L1374.12277,34.8549107 C1374.12277,32.3638268 1374.81919,30.4319265 1376.21205,29.0591518 C1377.60492,27.6863771 1379.45981,27 1381.77679,27 C1383.74555,27 1385.27232,27.0803563 1386.35714,27.2410714 L1386.35714,32.5446429 Z" id="ic_facebook"></path>
        </g>
    </g>
</svg>