<?xml version="1.0" encoding="UTF-8" standalone="no"?>
<svg width="258px" height="52px" viewBox="0 0 258 52" version="1.1" xmlns="http://www.w3.org/2000/svg" xmlns:xlink="http://www.w3.org/1999/xlink">
    <!-- Generator: Sketch 39.1 (31720) - http://www.bohemiancoding.com/sketch -->
    <title>ic_header_logo</title>
    <desc>Created with Sketch.</desc>
    <defs>
        <polygon id="path-1" points="37.9388977 31.0637352 37.9388977 0.215589117 -1.21489812e-05 0.215589117 -1.21489812e-05 31.0637352 37.9388977 31.0637352"></polygon>
        <polygon id="path-3" points="0.152889615 12.2217144 18.9034094 12.2217144 18.9034094 0.20779097 0.152889615 0.20779097 0.152889615 12.2217144"></polygon>
    </defs>
    <g id="UX" stroke="none" stroke-width="1" fill="none" fill-rule="evenodd">
        <g id="Landing" transform="translate(-61.000000, -19.000000)">
            <g id="ic_header_logo" transform="translate(61.000000, 19.000000)">
                <path d="M61.7897379,26.088467 C62.0420596,26.088467 62.2661005,26.073241 62.4618673,26.0427883 C62.6576342,26.0123357 62.8294714,25.9775332 62.9773841,25.9383799 C63.1252968,25.8992265 63.2558061,25.8274464 63.3689158,25.7230374 C63.4820255,25.6186285 63.5755572,25.527272 63.6495135,25.4489652 C63.7234699,25.3706585 63.7865494,25.2423244 63.8387538,25.0639591 C63.8909583,24.8855937 63.9301111,24.7398584 63.9562134,24.6267487 C63.9823156,24.5136389 64.001892,24.330926 64.0149431,24.0786043 C64.0279942,23.8262826 64.0345197,23.6239932 64.0345197,23.4717301 L64.0345197,22.7604475 L64.0345197,22.5646817 C64.0345197,22.2253525 64.0323445,21.9686843 64.0279942,21.7946693 C64.0236438,21.6206543 64.0084177,21.3987886 63.9823155,21.1290654 C63.9562132,20.8593422 63.9148853,20.6570528 63.8583304,20.5221912 C63.8017756,20.3873296 63.7191197,20.2328937 63.6103604,20.0588787 C63.501601,19.8848638 63.3689166,19.7587048 63.2123031,19.6803981 C63.0556896,19.6020913 62.8577506,19.5324864 62.61848,19.4715812 C62.3792094,19.4106759 62.1029648,19.3802238 61.7897379,19.3802238 L61.7897379,26.088467 Z M57,39.4919025 L57,16 L62.6772098,16 C64.7218856,16 66.2096912,16.5698905 67.1406713,17.7096885 C68.0716513,18.8494865 68.5371344,20.4982535 68.5371344,22.6560391 C68.5371344,23.7175303 68.4349021,24.6397958 68.2304345,25.4228631 C68.0259669,26.2059305 67.7410217,26.8519513 67.3755903,27.3609451 C67.0101589,27.8699389 66.5403255,28.2788679 65.9660761,28.5877444 C65.3918268,28.896621 64.7697326,29.1141364 64.099775,29.2402973 C63.4298174,29.3664581 62.6554624,29.4338879 61.7766868,29.4425887 L61.7766868,39.4919025 L57,39.4919025 Z M70.1685165,39.4919025 L70.1685165,22.4602732 L74.5406206,22.4602732 L74.5406206,23.8436852 C75.2105782,22.7560917 75.9936338,22.2123031 76.8898108,22.2123031 C77.1421325,22.2123031 77.5380106,22.2558062 78.077457,22.3428137 L78.077457,26.0493139 C77.2682874,25.9623064 76.698397,25.9188033 76.3677685,25.9188033 C75.7674169,25.9188033 75.3128096,26.1036914 75.0039331,26.4734732 C74.6950565,26.843255 74.5406206,27.3718175 74.5406206,28.0591766 L74.5406206,39.4919025 L70.1685165,39.4919025 Z M85.5818148,35.1197985 L85.5818148,26.6888157 C85.5818148,25.8274416 85.246841,25.396761 84.5768834,25.396761 C83.9765317,25.396761 83.6763604,25.8274416 83.6763604,26.6888157 L83.6763604,35.1197985 C83.6763604,35.3112149 83.6828859,35.4700012 83.695937,35.596162 C83.7089881,35.7223229 83.7416155,35.8702334 83.7938199,36.039898 C83.8460244,36.2095626 83.9373809,36.3378967 84.0678921,36.4249041 C84.1984034,36.5119116 84.3680654,36.5554147 84.5768834,36.5554147 C85.246841,36.5554147 85.5818148,36.0768807 85.5818148,35.1197985 L85.5818148,35.1197985 Z M79.2781542,35.0675942 L79.2781542,27.8242576 C79.2781542,26.0058012 79.7066597,24.594126 80.5636833,23.5891896 C81.420707,22.5842532 82.758427,22.0817925 84.5768834,22.0817925 C86.3953397,22.0817925 87.7439355,22.5842532 88.622711,23.5891896 C89.5014866,24.594126 89.9408678,26.0058012 89.9408678,27.8242576 L89.9408678,35.0675942 C89.9408678,36.4858162 89.4144804,37.6408232 88.3616899,38.5326498 C87.3088994,39.4244765 86.0473098,39.8703832 84.5768834,39.8703832 C83.6285018,39.8703832 82.7540897,39.6767944 81.9536209,39.2896112 C81.1531521,38.9024279 80.5071312,38.3368877 80.015539,37.5929737 C79.5239467,36.8490598 79.2781542,36.007275 79.2781542,35.0675942 L79.2781542,35.0675942 Z M94.4826356,37.9649289 C94.4826356,36.8251309 94.2520692,35.165488 93.7909296,32.9859506 C93.3297899,30.8064132 92.7947019,28.5681793 92.1856496,26.2711818 C91.5765972,23.9741843 91.2459737,22.7038941 91.1937692,22.4602732 L95.2004437,22.4602732 L96.7796216,31.9614427 L98.1630337,22.4602732 L102.19581,22.4602732 L98.476259,39.9486895 C98.3457478,40.5403404 98.1456336,41.055852 97.8759104,41.4952398 C97.6061872,41.9346276 97.2994904,42.2826523 96.9558109,42.5393243 C96.6121313,42.7959964 96.198852,43.0026361 95.7159605,43.1592495 C95.233069,43.315863 94.754535,43.4202704 94.2803442,43.4724749 C93.8061534,43.5246794 93.26454,43.5507812 92.6554876,43.5507812 L92.0942922,43.5507812 L92.0942922,40.509885 C92.964367,40.4924835 93.5799357,40.2858438 93.9410167,39.8899598 C94.3020978,39.4940757 94.4826356,38.8524052 94.4826356,37.9649289 L94.4826356,37.9649289 Z M107.755561,29.0380059 L109.465249,29.0380059 L109.465249,26.6888157 C109.465249,25.8274416 109.173778,25.396761 108.590828,25.396761 C108.03398,25.396761 107.755561,25.8274416 107.755561,26.6888157 L107.755561,29.0380059 Z M103.357354,35.0675942 L103.357354,27.8242576 C103.357354,26.014502 103.788035,24.6028268 104.649409,23.5891896 C105.510783,22.5755525 106.824576,22.0687415 108.590828,22.0687415 C110.365781,22.0687415 111.681749,22.5733773 112.538773,23.5826641 C113.395797,24.5919509 113.824302,26.0058012 113.824302,27.8242576 L113.824302,31.348043 L107.755561,31.348043 L107.755561,35.1197985 C107.755561,36.0768807 108.03398,36.5554147 108.590828,36.5554147 C109.199881,36.5554147 109.504402,36.0420783 109.504402,35.01539 L109.504402,33.1490889 L113.824302,33.1490889 L113.824302,35.0675942 C113.824302,36.4858162 113.310966,37.6408232 112.284277,38.5326498 C111.257589,39.4244765 110.026452,39.8703832 108.590828,39.8703832 C107.155205,39.8703832 105.924067,39.4223014 104.897379,38.5261243 C103.870691,37.6299473 103.357354,36.4771154 103.357354,35.0675942 L103.357354,35.0675942 Z M115.625348,35.1328495 L115.625348,27.8242576 C115.625348,26.014502 116.056028,24.6028268 116.917403,23.5891896 C117.778777,22.5755525 119.09257,22.0687415 120.858822,22.0687415 C122.633774,22.0687415 123.949743,22.5733773 124.806766,23.5826641 C125.66379,24.5919509 126.092296,26.0058012 126.092296,27.8242576 L126.092296,29.3120781 L121.772396,29.3120781 L121.772396,27.3674706 C121.772396,26.6888123 121.713667,26.1907019 121.596206,25.8731246 C121.478746,25.5555473 121.232954,25.396761 120.858822,25.396761 C120.301974,25.396761 120.023554,25.8274416 120.023554,26.6888157 L120.023554,35.1197985 C120.023554,36.0768807 120.301974,36.5554147 120.858822,36.5554147 C121.06764,36.5554147 121.235127,36.5119116 121.361287,36.4249041 C121.487448,36.3378967 121.578805,36.1899862 121.63536,35.9811682 C121.691914,35.7723503 121.728892,35.55701 121.746294,35.3351409 C121.763695,35.1132718 121.772396,34.8022247 121.772396,34.4019903 L121.772396,32.5878934 L126.092296,32.5878934 L126.092296,35.1328495 C126.092296,36.0725303 125.848678,36.9099648 125.361436,37.645178 C124.874194,38.3803912 124.234699,38.9350556 123.442931,39.3091877 C122.651163,39.6833199 121.789802,39.8703832 120.858822,39.8703832 C119.423198,39.8703832 118.192061,39.4331772 117.165373,38.558752 C116.138684,37.6843268 115.625348,36.5423707 115.625348,35.1328495 L115.625348,35.1328495 Z M128.24572,33.645029 L128.24572,25.396761 L126.992818,25.396761 L126.992818,22.4602732 L128.24572,22.4602732 L128.24572,16.8613698 L132.643926,16.8613698 L132.643926,22.4602732 L134.758197,22.4602732 L134.758197,25.396761 L132.643926,25.396761 L132.643926,34.7021646 C132.643926,35.172005 132.730932,35.5222049 132.904947,35.7527747 C133.078962,35.9833445 133.387834,36.0986277 133.831572,36.0986277 C134.336216,36.0986277 134.762546,36.0725259 135.110576,36.0203214 L135.110576,39.4266472 C134.536327,39.6006622 133.609711,39.6876684 132.330701,39.6876684 C131.817357,39.6876684 131.354049,39.6267641 130.940763,39.5049536 C130.527478,39.3831431 130.179453,39.2200065 129.896679,39.015539 C129.613904,38.8110714 129.370287,38.552228 129.165819,38.2390011 C128.961352,37.9257741 128.80039,37.6060264 128.68293,37.2797484 C128.56547,36.9534703 128.474114,36.5728183 128.408858,36.1377809 C128.343603,35.7027435 128.300099,35.2981648 128.278348,34.9240326 C128.256596,34.5499004 128.24572,34.1235702 128.24572,33.645029 L128.24572,33.645029 Z M142.758495,35.1197985 L142.758495,26.6888157 C142.758495,25.8274416 142.423522,25.396761 141.753564,25.396761 C141.153212,25.396761 140.853041,25.8274416 140.853041,26.6888157 L140.853041,35.1197985 C140.853041,35.3112149 140.859566,35.4700012 140.872618,35.596162 C140.885669,35.7223229 140.918296,35.8702334 140.970501,36.039898 C141.022705,36.2095626 141.114061,36.3378967 141.244573,36.4249041 C141.375084,36.5119116 141.544746,36.5554147 141.753564,36.5554147 C142.423522,36.5554147 142.758495,36.0768807 142.758495,35.1197985 L142.758495,35.1197985 Z M136.454835,35.0675942 L136.454835,27.8242576 C136.454835,26.0058012 136.88334,24.594126 137.740364,23.5891896 C138.597388,22.5842532 139.935108,22.0817925 141.753564,22.0817925 C143.57202,22.0817925 144.920616,22.5842532 145.799392,23.5891896 C146.678167,24.594126 147.117548,26.0058012 147.117548,27.8242576 L147.117548,35.0675942 C147.117548,36.4858162 146.591161,37.6408232 145.53837,38.5326498 C144.48558,39.4244765 143.22399,39.8703832 141.753564,39.8703832 C140.805182,39.8703832 139.93077,39.6767944 139.130301,39.2896112 C138.329833,38.9024279 137.683812,38.3368877 137.19222,37.5929737 C136.700627,36.8490598 136.454835,36.007275 136.454835,35.0675942 L136.454835,35.0675942 Z M159.555206,31.5438088 L161.982702,31.5438088 L160.795056,22.8257028 L159.555206,31.5438088 Z M153.603924,39.4919025 L158.680785,16 L162.883225,16 L167.947035,39.4919025 L163.261706,39.4919025 L162.295928,34.4672456 L159.228929,34.4672456 L158.315355,39.4919025 L153.603924,39.4919025 Z M169.317396,39.4919025 L169.317396,16 L173.715602,16 L173.715602,39.4919025 L169.317396,39.4919025 Z M176.221405,20.9724527 L176.221405,16.8613698 L180.619612,16.8613698 L180.619612,20.9724527 L176.221405,20.9724527 Z M176.221405,39.4919025 L176.221405,22.4602732 L180.619612,22.4602732 L180.619612,39.4919025 L176.221405,39.4919025 Z M183.099312,39.4919025 L183.099312,22.4602732 L187.497519,22.4602732 L187.497519,23.6740215 C187.906454,23.1954803 188.393688,22.8083029 188.959237,22.5124774 C189.524786,22.216652 190.107727,22.0687415 190.708079,22.0687415 C191.273627,22.0687415 191.795664,22.2514545 192.274205,22.6168859 C192.752747,22.9823173 193.113822,23.4390997 193.357443,23.9872469 C193.78378,23.4129975 194.307992,22.9496896 194.930096,22.5973093 C195.552199,22.244929 196.211271,22.0687415 196.907331,22.0687415 C197.507682,22.0687415 198.047121,22.2601551 198.525662,22.642988 C199.004203,23.0258209 199.363103,23.4978294 199.602374,24.0590277 C199.841644,24.6202259 199.961278,25.1922915 199.961278,25.7752417 L199.961278,39.4919025 L195.563072,39.4919025 L195.563072,26.6496625 C195.563072,26.493049 195.558721,26.3647149 195.550021,26.2646563 C195.54132,26.1645977 195.519568,26.0362636 195.484765,25.8796501 C195.449962,25.7230367 195.384708,25.6034032 195.289,25.5207461 C195.193291,25.4380889 195.071483,25.396761 194.92357,25.396761 C194.610343,25.396761 194.210115,25.7186839 193.722873,26.3625392 L193.722873,39.4919025 L189.324667,39.4919025 L189.324667,26.6235604 C189.324667,25.80569 189.124552,25.396761 188.724318,25.396761 C188.39369,25.396761 187.98041,25.7230342 187.484468,26.3755903 L187.484468,39.4919025 L183.099312,39.4919025 Z M206.512909,29.0380059 L208.222597,29.0380059 L208.222597,26.6888157 C208.222597,25.8274416 207.931126,25.396761 207.348176,25.396761 C206.791328,25.396761 206.512909,25.8274416 206.512909,26.6888157 L206.512909,29.0380059 Z M202.114702,35.0675942 L202.114702,27.8242576 C202.114702,26.014502 202.545383,24.6028268 203.406757,23.5891896 C204.268131,22.5755525 205.581924,22.0687415 207.348176,22.0687415 C209.123129,22.0687415 210.439097,22.5733773 211.296121,23.5826641 C212.153145,24.5919509 212.58165,26.0058012 212.58165,27.8242576 L212.58165,31.348043 L206.512909,31.348043 L206.512909,35.1197985 C206.512909,36.0768807 206.791328,36.5554147 207.348176,36.5554147 C207.957229,36.5554147 208.26175,36.0420783 208.26175,35.01539 L208.26175,33.1490889 L212.58165,33.1490889 L212.58165,35.0675942 C212.58165,36.4858162 212.068314,37.6408232 211.041625,38.5326498 C210.014937,39.4244765 208.7838,39.8703832 207.348176,39.8703832 C205.912553,39.8703832 204.681415,39.4223014 203.654727,38.5261243 C202.628039,37.6299473 202.114702,36.4771154 202.114702,35.0675942 L202.114702,35.0675942 Z M214.591513,39.4919025 L214.591513,22.4602732 L218.989719,22.4602732 L218.989719,23.6609704 C219.407355,23.1824293 219.909816,22.7996021 220.497116,22.5124774 C221.084417,22.2253527 221.695635,22.0817925 222.33079,22.0817925 C222.931141,22.0817925 223.468404,22.271031 223.942595,22.6495135 C224.416786,23.0279961 224.769161,23.4934791 224.999731,24.0459766 C225.230301,24.5984741 225.345584,25.1705397 225.345584,25.7621906 L225.345584,39.4919025 L220.947378,39.4919025 L220.947378,26.532203 C220.947378,25.7752379 220.70376,25.396761 220.216518,25.396761 C220.164314,25.396761 220.109935,25.4032865 220.05338,25.4163376 C219.996825,25.4293887 219.940271,25.4511403 219.883716,25.4815929 C219.827162,25.5120455 219.777133,25.5381474 219.733629,25.5598992 C219.690126,25.5816511 219.637922,25.6186287 219.577017,25.6708332 C219.516111,25.7230377 219.470433,25.7621905 219.43998,25.7882927 C219.409528,25.814395 219.36385,25.8600732 219.302944,25.9253288 C219.242039,25.9905844 219.202886,26.0340875 219.185485,26.0558394 C219.168083,26.0775913 219.133281,26.1189192 219.081076,26.1798244 L218.989719,26.2842329 L218.989719,39.4919025 L214.591513,39.4919025 Z M228.007999,33.645029 L228.007999,25.396761 L226.755098,25.396761 L226.755098,22.4602732 L228.007999,22.4602732 L228.007999,16.8613698 L232.406206,16.8613698 L232.406206,22.4602732 L234.520477,22.4602732 L234.520477,25.396761 L232.406206,25.396761 L232.406206,34.7021646 C232.406206,35.172005 232.493212,35.5222049 232.667227,35.7527747 C232.841242,35.9833445 233.150114,36.0986277 233.593852,36.0986277 C234.098495,36.0986277 234.524825,36.0725259 234.872855,36.0203214 L234.872855,39.4266472 C234.298606,39.6006622 233.37199,39.6876684 232.09298,39.6876684 C231.579636,39.6876684 231.116328,39.6267641 230.703043,39.5049536 C230.289757,39.3831431 229.941732,39.2200065 229.658958,39.015539 C229.376184,38.8110714 229.132566,38.552228 228.928099,38.2390011 C228.723631,37.9257741 228.56267,37.6060264 228.44521,37.2797484 C228.32775,36.9534703 228.236393,36.5728183 228.171138,36.1377809 C228.105882,35.7027435 228.062379,35.2981648 228.040627,34.9240326 C228.018875,34.5499004 228.007999,34.1235702 228.007999,33.645029 L228.007999,33.645029 Z M242.403315,35.6418407 L242.403315,31.4524514 C240.958991,32.6183517 240.23684,33.8973425 240.23684,35.2894622 C240.23684,35.6374921 240.30427,35.9354883 240.439131,36.1834596 C240.573993,36.4314309 240.802384,36.5554147 241.124312,36.5554147 C241.307027,36.5554147 241.487565,36.4966855 241.665931,36.3792254 C241.844296,36.2617653 241.97263,36.1595331 242.050937,36.0725256 C242.129243,35.9855181 242.246702,35.8419579 242.403315,35.6418407 L242.403315,35.6418407 Z M243.290787,39.4919025 L242.860102,37.7300098 C242.607781,38.5217779 242.194501,39.0764423 241.620252,39.3940196 C241.046002,39.7115969 240.332552,39.8703832 239.479878,39.8703832 C238.853425,39.8703832 238.305286,39.7485745 237.835445,39.5049536 C237.365605,39.2613326 236.998004,38.9328843 236.732631,38.5195988 C236.467258,38.1063133 236.271494,37.6625818 236.145333,37.188391 C236.019173,36.7142002 235.956093,36.2160898 235.956093,35.694045 C235.956093,35.1023941 236.016997,34.5542552 236.138808,34.0496118 C236.260618,33.5449684 236.415054,33.0990617 236.60212,32.7118784 C236.789186,32.3246951 237.050205,31.9527437 237.385184,31.5960131 C237.720163,31.2392824 238.046436,30.9369359 238.364013,30.6889646 C238.68159,30.4409933 239.088344,30.1843251 239.584287,29.9189523 C240.08023,29.6535794 240.523961,29.4317137 240.915495,29.2533483 C241.307028,29.074983 241.798613,28.863993 242.390264,28.6203721 L242.390264,27.1847558 C242.390264,26.5844042 242.316309,26.1363224 242.168396,25.840497 C242.020483,25.5446715 241.768166,25.396761 241.411435,25.396761 C241.167814,25.396761 240.969875,25.4467896 240.817612,25.5468482 C240.665349,25.6469068 240.558766,25.7969924 240.497861,25.9971096 C240.436956,26.1972268 240.397803,26.3777647 240.380401,26.5387285 C240.363,26.6996923 240.354299,26.9150326 240.354299,27.1847558 L240.354299,28.150534 L236.086604,28.150534 C236.086604,26.1928657 236.578189,24.689834 237.561373,23.6413939 C238.544558,22.5929537 239.971459,22.0687415 241.84212,22.0687415 C243.147232,22.0687415 244.291363,22.5429251 245.274548,23.4913067 C246.257732,24.4396882 246.749317,25.5664182 246.749317,26.8715305 L246.749317,34.9631858 C246.749317,36.3640062 246.93638,37.8735634 247.310513,39.4919025 L243.290787,39.4919025 Z M249.163763,39.4919025 L249.163763,22.4602732 L253.535867,22.4602732 L253.535867,23.8436852 C254.205824,22.7560917 254.98888,22.2123031 255.885057,22.2123031 C256.137379,22.2123031 256.533257,22.2558062 257.072703,22.3428137 L257.072703,26.0493139 C256.263534,25.9623064 255.693643,25.9188033 255.363015,25.9188033 C254.762663,25.9188033 254.308056,26.1036914 253.999179,26.4734732 C253.690303,26.843255 253.535867,27.3718175 253.535867,28.0591766 L253.535867,39.4919025 L249.163763,39.4919025 Z" id="Proyecto-Alimentar" fill="#FEB949"></path>
                <g id="Page-1">
                    <path d="M24.3929125,14.0988388 C24.3929125,14.0988388 24.467617,13.9244611 24.607958,13.597312 C24.6405602,13.5150337 24.6871966,13.4277358 24.7204466,13.3238512 C24.7513216,13.2195301 24.7852193,13.1058245 24.821708,12.9827344 C24.8560375,12.859426 24.902242,12.7306615 24.9346284,12.5883659 C24.9601057,12.4445425 24.9870943,12.2919893 25.0158102,12.1304881 C25.116208,11.4879751 25.1531284,10.6900717 24.9775943,9.82254824 C24.8089693,8.95808019 24.4632989,8.02966638 23.9053898,7.17021797 C23.8319807,7.0658969 23.7579239,6.96048462 23.6830034,6.8539811 C23.6076511,6.74900531 23.5428784,6.63660918 23.4528443,6.5394902 C23.2809807,6.34088734 23.1302761,6.12417016 22.9342307,5.93953497 C22.8400943,5.84416195 22.7496284,5.74507876 22.6572193,5.64686856 C22.5561739,5.55738815 22.4542648,5.46725301 22.3512761,5.37646313 C22.3001057,5.33106819 22.2497989,5.28480027 22.2005716,5.23678639 C22.1509125,5.19073672 22.102333,5.16258312 22.0535375,5.12373553 C21.9563784,5.05084174 21.8605148,4.97598373 21.7655148,4.89850679 C21.7303216,4.86118692 21.6452534,4.81011761 21.5731398,4.76275847 L21.3514011,4.61871683 L21.1281511,4.47380222 L21.0160943,4.40090842 C20.9487307,4.35922365 21.0920943,4.44717634 21.0730943,4.43604585 L21.0612193,4.42971675 L21.0372534,4.41727679 L20.9895375,4.39217863 C20.7332534,4.26232291 20.4851739,4.10256764 20.206867,4.00588515 C19.6692534,3.76385156 19.0817648,3.61828221 18.4763557,3.52159972 C17.8679239,3.42513547 17.2363898,3.44128559 16.5977307,3.50283066 C16.4390375,3.5288018 16.2796966,3.55477294 16.1201398,3.58074408 C15.9577761,3.59864017 15.8055602,3.65953049 15.6455716,3.69532266 L15.4061284,3.75468527 C15.326458,3.77585503 15.2511057,3.80946474 15.1729466,3.83587237 C15.0187875,3.89414376 14.858367,3.94215764 14.7050716,4.00741287 C14.0895148,4.26821552 13.5091511,4.62613716 12.960742,5.0482228 L12.5695148,5.39152203 L12.4706284,5.47751052 L12.3887989,5.56568146 L12.222117,5.74115036 L12.051117,5.9168375 C12.022833,5.94171742 11.9923898,5.98143799 11.9617307,6.02443224 L11.8704011,6.14752236 L11.505083,6.63966461 L11.2520375,7.05214747 C11.1494807,7.20229997 11.0756398,7.36598364 10.9979125,7.52901258 L10.8793784,7.77344687 L10.8193557,7.8961005 L10.7729352,8.02355553 L10.5850943,8.53664929 C10.3758784,9.23481473 10.2541057,9.96658988 10.2428784,10.7062218 C10.246117,11.4436714 10.3393898,12.184831 10.5460148,12.8934722 C10.5961057,13.0706871 10.6651966,13.2411364 10.725867,13.4146411 L10.8206511,13.6734795 L10.9387534,13.920751 C11.020583,14.0839982 11.0888102,14.2553204 11.1805716,14.4122385 C11.2751398,14.5680654 11.3690602,14.7232375 11.4627648,14.8779731 L11.533583,14.9940794 L11.6151966,15.1018924 L11.778208,15.3168636 C11.8889693,15.4582863 11.9880716,15.6101848 12.1156739,15.7350208 C12.2374466,15.8659678 12.3585716,15.99626 12.4792648,16.1258975 C12.6019011,16.2533525 12.7379239,16.3550546 12.8655261,16.4711609 C13.1064807,16.7046829 13.4277534,16.9039405 13.7164239,17.1112732 L13.8129352,17.1780561 L13.9256398,17.2393829 L14.1504011,17.3618183 C14.3013216,17.4395135 14.4444693,17.5331406 14.599708,17.5968681 C15.8206739,18.1632136 17.119367,18.3563603 18.2876511,18.2714631 C19.4609011,18.1749988 20.4929466,17.8011453 21.3157761,17.3399938 C22.147458,16.8834255 22.7545943,16.3127151 23.2051966,15.8203546 C23.3153102,15.694209 23.4193784,15.5748291 23.517617,15.4626512 C23.610242,15.3482909 23.6808443,15.2348035 23.755333,15.1337561 C23.8278784,15.0324905 23.8948102,14.9386452 23.9563443,14.852875 C24.0176625,14.7666682 24.068833,14.6621289 24.1169807,14.5826878 C24.3071966,14.2500825 24.4086739,14.0726494 24.4086739,14.0726494 L24.3929125,14.0988388 Z M25.4169693,14.7319673 C25.4169693,14.7319673 25.2986511,14.8982699 25.0766966,15.2101419 C25.0177534,15.28871 24.966583,15.3738255 24.883242,15.4724722 C24.7988216,15.5706824 24.7068443,15.6778407 24.6073102,15.7937287 C24.5064807,15.9069978 24.4032761,16.0366353 24.2834466,16.1577612 C24.1605943,16.2732128 24.0301852,16.3958664 23.8922193,16.5257221 C23.3304239,17.0257212 22.5965489,17.5868288 21.6495716,18.0100057 C21.4170375,18.1219653 21.1633443,18.2077356 20.9109466,18.3118384 C20.7857193,18.3670543 20.6505602,18.4006641 20.515833,18.4401664 C20.3811057,18.4787957 20.2446511,18.5180798 20.1062534,18.5578004 C19.829242,18.6344043 19.5364693,18.6776168 19.2424011,18.7402531 C18.9444466,18.7823744 18.6367761,18.8057266 18.3250034,18.8367174 C17.0710034,18.905028 15.6982534,18.7024968 14.3570261,18.1592852 C14.1873216,18.0968672 14.029492,18.0043313 13.8630261,17.9272909 L13.6153784,17.8050737 L13.4910148,17.7437469 L13.3614693,17.6660517 C13.055742,17.4739962 12.7452648,17.3114038 12.4345716,17.0562755 C11.7954807,16.5957787 11.2511739,16.0379448 10.7414125,15.408963 C10.234458,14.7791082 9.83070795,14.0530074 9.48784432,13.2828211 C9.41335568,13.0850913 9.33865114,12.8869249 9.26373068,12.6881038 C9.18190114,12.4901557 9.14368523,12.2791128 9.08171932,12.0730897 L8.99513977,11.7609994 C8.96793523,11.6562419 8.95390114,11.5490837 8.93274205,11.4425801 C8.89646932,11.2289184 8.84961705,11.0143836 8.82306023,10.79723 C8.71618523,9.92555984 8.74770795,9.02857329 8.87898068,8.13333271 L9.01651477,7.46724927 L9.05235568,7.29985544 L9.1026625,7.13704474 L9.20457159,6.81011388 C9.27236705,6.59165073 9.33865114,6.37100514 9.43581023,6.16345424 L9.57118523,5.84678089 L9.63962841,5.6878986 L9.67395795,5.60845746 L9.69123068,5.56873688 L9.69986705,5.5488766 C9.71519659,5.52181423 9.67784432,5.58161333 9.73635568,5.48318488 L10.0304239,4.94433822 L10.1040489,4.80968112 C10.1269352,4.76559565 10.1521966,4.72020071 10.1904125,4.66760369 L10.3987648,4.36424328 L10.6110034,4.06110111 L10.718742,3.90985739 L10.8314466,3.77629152 L11.2878784,3.24530167 C11.9343102,2.57267089 12.6727193,1.98188194 13.4854011,1.52094871 C14.3036966,1.0742014 15.1774807,0.733521111 16.0804125,0.536445966 C16.3053898,0.485813149 16.5340375,0.456568332 16.760958,0.420994413 C16.874742,0.404844291 16.9883102,0.386293474 17.1018784,0.37276229 L17.444742,0.353338494 C17.672958,0.344826943 17.9013898,0.321911228 18.1285261,0.32867682 C18.3556625,0.337624861 18.5827989,0.347445882 18.8086398,0.36206829 C19.7055261,0.455695353 20.593992,0.628108824 21.4025716,0.967697889 C21.8184125,1.10955707 22.1964693,1.32190936 22.579492,1.51287365 L22.650742,1.54932055 L22.686367,1.56765312 L22.7042875,1.57681941 C22.6954352,1.5704903 22.8476511,1.66542684 22.7897875,1.62963467 L22.9014125,1.70296496 L23.1237989,1.84940729 L23.3448898,1.99475839 C23.4191625,2.04429998 23.4852307,2.08271109 23.5815261,2.16171574 C23.7566284,2.30597562 23.9302193,2.44914427 24.1027307,2.59143995 C24.1856398,2.66346077 24.277833,2.73482685 24.351242,2.80793889 C24.4235716,2.8803962 24.4943898,2.95416297 24.5639125,3.02858449 C24.702742,3.17699102 24.8402761,3.32408808 24.9769466,3.47031216 C25.104117,3.62439306 25.2211398,3.7854578 25.3383784,3.94281237 C25.8157534,4.56742928 26.151708,5.25402774 26.4280716,5.91574628 C26.9438784,7.2651545 27.0770943,8.58117125 27.0259239,9.70404126 C26.9859807,10.8330221 26.7234352,11.7749671 26.4801057,12.5150356 C26.4133898,12.6985795 26.3503443,12.8723025 26.2911852,13.0359862 C26.2281398,13.1972691 26.1527875,13.3421838 26.0912534,13.479678 C26.0277761,13.6156446 25.9690489,13.7417902 25.9152875,13.8570235 C25.8621739,13.972475 25.7974011,14.0691575 25.7483898,14.1597292 C25.5426284,14.5159048 25.4327307,14.7057779 25.4327307,14.7057779 L25.4169693,14.7319673 Z" id="Fill-1" fill="#FDB949"></path>
                    <path d="M13.9818409,16.898157 L14.3039773,17.0736259 C14.3547159,17.0995971 14.4110682,17.1312426 14.4674205,17.1628881 C14.5561591,17.2128662 14.6401477,17.2602253 14.7217614,17.2936168 C15.8345568,17.8095477 17.0568182,18.0330305 18.2643977,17.9448596 C19.2631932,17.8627995 20.2652273,17.5546377 21.1586591,17.0535474 C21.8128636,16.6947528 22.38675,16.2325101 22.9673295,15.5980722 L23.275,15.2458249 C23.3194773,15.1903907 23.3639545,15.125572 23.4064886,15.0640269 C23.4367159,15.0203779 23.4660795,14.9782567 23.4956591,14.9378813 L23.6940795,14.6609286 C23.7266818,14.6150971 23.7558295,14.5616271 23.78325,14.5120855 C23.8028977,14.4767299 23.8218977,14.4426837 23.8404659,14.4119111 L24.1006364,13.9568705 L24.3109318,13.467129 C24.3208636,13.4415943 24.3361932,13.4071116 24.3521705,13.3715377 C24.3724659,13.3259245 24.3949205,13.2776924 24.4121932,13.2235677 L24.5117273,12.88878 C24.5231705,12.8470952 24.5378523,12.7992996 24.5529659,12.7504127 C24.5758523,12.675773 24.60025,12.5980778 24.6190341,12.5151447 L24.6969773,12.072544 C24.814,11.3250553 24.8019091,10.587824 24.6602727,9.88813084 C24.4851705,8.99136254 24.1308636,8.11423628 23.6347045,7.34994264 L23.4190114,7.0435268 C23.396125,7.0114448 23.3721591,6.97630737 23.348625,6.9409517 C23.3041477,6.87482349 23.2620455,6.81218721 23.2164886,6.76330035 C23.149125,6.68560516 23.0910455,6.61380259 23.0331818,6.54200002 C22.9273864,6.41039834 22.8272045,6.286217 22.7132045,6.17905875 C22.6311591,6.0956892 22.5596932,6.01908524 22.4877955,5.94226303 L22.4327386,5.88290042 L22.1382386,5.6227525 C22.0831818,5.57408388 22.0289886,5.52432405 21.975875,5.47281825 C21.9614091,5.45928707 21.9413295,5.44597413 21.9218977,5.43200645 C21.8990114,5.41563809 21.876125,5.39926972 21.8530227,5.38093715 C21.75975,5.31088053 21.6602159,5.23340359 21.5617614,5.15330772 L21.5304545,5.12362641 C21.5159886,5.11249592 21.4790682,5.09045318 21.4432273,5.06731923 L20.8401932,4.68277171 C20.7641932,4.64436061 20.6849545,4.60092987 20.6052841,4.55728089 C20.4332045,4.4629991 20.2708409,4.37417342 20.1017841,4.31546554 L20.0752273,4.30498979 C19.6200909,4.10005783 19.08075,3.94946884 18.4256818,3.84492954 C17.919375,3.76461541 17.3485114,3.75937754 16.6282386,3.82856117 L16.1718068,3.9040739 C16.0802614,3.91454966 15.9975682,3.93833835 15.910125,3.96343652 C15.8457841,3.98198733 15.7814432,4.00031991 15.7158068,4.01494231 L15.4832727,4.07277721 C15.4482955,4.0819435 15.4098636,4.0970024 15.3714318,4.11162481 C15.3394773,4.12341003 15.3079545,4.1354135 15.2755682,4.14632574 C15.2233182,4.16640428 15.1587614,4.18866526 15.0942045,4.21114448 C15.0058977,4.24169877 14.9169432,4.27225305 14.8307955,4.3089182 C14.2769886,4.54374971 13.7141136,4.87984686 13.1572841,5.30869809 L12.6248523,5.78970985 L12.2636364,6.16378161 C12.2530568,6.1749121 12.2396705,6.19499063 12.2247727,6.21572389 L11.772875,6.82462716 L11.5271705,7.22467007 C11.4416705,7.35059738 11.3803523,7.4800166 11.3151477,7.6170744 L11.1171591,8.02541061 L10.8891591,8.65024576 C10.6875,9.32374952 10.5769545,10.0234427 10.5668068,10.7111324 C10.5700455,11.4479271 10.6676364,12.1530764 10.8565568,12.8008273 C10.8887273,12.9143146 10.9291023,13.0247465 10.9720682,13.1417258 C10.9919318,13.1960688 11.0120114,13.25063 11.0312273,13.3056277 L11.1188864,13.5452606 L11.2305114,13.7783462 C11.2587955,13.8348716 11.2879432,13.8979444 11.3170909,13.9610172 C11.3641591,14.0627193 11.4086364,14.1587471 11.4591591,14.245172 L11.8007273,14.8080256 L12.0354205,15.1179334 C12.0654318,15.1563445 12.0976023,15.199557 12.1299886,15.2429877 C12.2010227,15.3383607 12.2681705,15.4287141 12.3409318,15.499862 L12.7153182,15.9018691 C12.7777159,15.9664696 12.8522045,16.0297606 12.9310114,16.0965435 C12.98175,16.1395378 13.0327045,16.1827503 13.0821477,16.2277087 C13.2503409,16.3907376 13.4668977,16.5402354 13.6761136,16.6847135 C13.7529773,16.7379653 13.829625,16.7907806 13.9041136,16.8442506 L13.9818409,16.898157 Z M24.6414886,14.2078522 L24.6892045,14.2364422 L24.3970795,14.7466988 C24.3785114,14.7776896 24.3633977,14.8049702 24.3478523,14.8331238 C24.3087727,14.9031804 24.2664545,14.9778202 24.2193864,15.0439484 L24.0175114,15.3257025 C23.9890114,15.3647684 23.9635341,15.4014335 23.9374091,15.4389716 C23.8860227,15.5136114 23.8318295,15.5915248 23.7683523,15.6698747 L23.4481591,16.0369627 C22.8125227,16.7311997 22.1859545,17.2349089 21.4704318,17.6277497 C21.097125,17.8368284 20.7061136,18.0151344 20.303875,18.1607038 L20.5085568,18.1019959 C20.6074432,18.0736241 20.7013636,18.0469982 20.78125,18.0118608 C20.8803523,17.9708307 20.9723295,17.9352568 21.0634432,17.9001194 C21.2219205,17.8390108 21.3719773,17.7809577 21.5101591,17.714393 C22.2645455,17.3772046 22.9712159,16.9092875 23.6781023,16.2798692 L24.0624205,15.9182374 C24.1289205,15.851018 24.1960682,15.7722316 24.2604091,15.6969371 C24.2964659,15.6548158 24.331875,15.6135676 24.3668523,15.5745017 L24.6388977,15.2576101 C24.6831591,15.2050131 24.7179205,15.1548168 24.7503068,15.1081124 C24.7731932,15.0749391 24.7954318,15.0430754 24.8185341,15.0120846 L25.1564318,14.5352195 L25.4688523,13.9946269 C25.4833182,13.9677828 25.5040455,13.9317724 25.5260682,13.8946707 C25.5575909,13.8407642 25.5919205,13.7833658 25.6217159,13.7189836 L25.7983295,13.3396739 C25.8179773,13.2955885 25.8419432,13.2453921 25.866125,13.1938863 C25.9075795,13.1061519 25.9514091,13.0142708 25.9898409,12.9156241 L26.1761705,12.4020938 C26.3987727,11.7248799 26.6630455,10.7953749 26.7023409,9.69214691 C26.7604205,8.41585074 26.5663182,7.18604072 26.1258636,6.03370765 C25.9028295,5.49966237 25.57875,4.7925489 25.0821591,4.14305207 L25.0169545,4.05531762 C24.9236818,3.92960856 24.8295455,3.80259003 24.7282841,3.68015464 L24.3286364,3.25326761 C24.2612727,3.18146504 24.1932614,3.1103172 24.1233068,3.04047883 C24.0805568,2.99792108 24.0293864,2.95579981 23.9786477,2.91324206 L23.377125,2.41542544 C23.3140795,2.36391964 23.2659318,2.33292887 23.2177841,2.30171984 L22.6136705,1.90429588 C22.5948864,1.89251066 22.5655227,1.87439633 22.5499773,1.86479355 L22.4329545,1.80477621 C22.3543636,1.76571037 22.27275,1.72402559 22.1909205,1.68212257 C21.8897273,1.52782343 21.6051591,1.38225408 21.2992159,1.27793302 L21.2784886,1.2700762 C20.5940568,0.982647665 19.7753295,0.792119867 18.7752386,0.687580559 C18.5649432,0.67426762 18.3403977,0.664664845 18.1158523,0.655716804 C17.9804773,0.651788396 17.8373295,0.660081702 17.6864091,0.668811498 C17.6099773,0.673176396 17.5333295,0.677759539 17.4566818,0.680596723 L17.1200795,0.699584029 C17.0652386,0.706786111 16.9911818,0.717916601 16.917125,0.728828846 L16.651125,0.768767662 C16.4771023,0.794957051 16.3125795,0.819618724 16.1508636,0.856065623 C15.3036364,1.04070081 14.4594318,1.36130257 13.6391932,1.80892286 C12.8826477,2.23821058 12.1684205,2.79888173 11.5202614,3.47347672 L10.9735795,4.1120613 L10.4564773,4.85409396 C10.4247386,4.89796118 10.4070341,4.93026143 10.3910568,4.96147045 L10.1265682,5.44619237 L10.1298068,5.44881131 L9.93635227,5.81917291 L9.73296591,6.29341908 C9.64617045,6.47980022 9.58701136,6.67141924 9.52418182,6.874387 L9.36592045,7.38333411 L9.19621591,8.20022477 C9.065375,9.09524711 9.04702273,9.96167937 9.14461364,10.7567455 C9.16167045,10.8964223 9.18757955,11.0343531 9.21305682,11.1718473 C9.22644318,11.2436499 9.23982955,11.3152342 9.25213636,11.3870368 C9.25818182,11.4178093 9.26509091,11.4573117 9.27221591,11.496814 C9.28257955,11.5574861 9.29272727,11.6181582 9.30827273,11.677739 L9.39355682,11.9845914 C9.4145,12.0535567 9.43436364,12.1301607 9.45401136,12.2063282 C9.48704545,12.3337832 9.51813636,12.4540361 9.56261364,12.5620674 L9.79061364,13.1661692 C10.1524773,13.977822 10.5480227,14.6495798 10.9927955,15.2023942 C11.5407727,15.8787351 12.0589545,16.3835356 12.6226932,16.7896893 C12.8504773,16.9760705 13.0631477,17.1037437 13.2883409,17.2390556 C13.3699545,17.2881607 13.4513523,17.3370475 13.5325341,17.3878986 L13.6100455,17.434603 L13.5333977,17.381133 C13.4576136,17.3270083 13.3842045,17.2761572 13.3105795,17.2253061 C13.0795568,17.0657691 12.8407614,16.9005577 12.6414773,16.707411 C12.6049886,16.6746743 12.5598636,16.6364814 12.5147386,16.5980703 C12.4270795,16.523867 12.3361818,16.4468266 12.2472273,16.3542908 L11.8799659,15.9594857 C11.7808636,15.8630215 11.6951477,15.7477882 11.6122386,15.636265 C11.5833068,15.5974174 11.5541591,15.5583516 11.5241477,15.5201587 L11.2581477,15.1659473 L10.9042727,14.5827969 C10.8353977,14.4651629 10.7820682,14.3497113 10.73025,14.2381882 C10.7039091,14.1812263 10.6777841,14.1244826 10.6497159,14.0686119 L10.5167159,13.787076 L10.4221477,13.5282375 C10.4025,13.4721486 10.3837159,13.4206428 10.3647159,13.3693552 C10.319375,13.2458286 10.2725227,13.1181554 10.2347386,12.98328 C10.0289773,12.279222 9.92253409,11.5127459 9.91907955,10.7076404 C9.93030682,9.95251308 10.0501364,9.19214785 10.2753295,8.44182188 L10.5290227,7.75107677 L10.7311136,7.33401076 C10.8040909,7.18014811 10.8796591,7.02104758 10.9854545,6.86631194 L11.2458409,6.44313508 L11.7029205,5.82768446 C11.7370341,5.78010707 11.7780568,5.72576409 11.8272841,5.68015091 L12.3582045,5.1434867 L12.7485682,4.80106045 C13.3654205,4.32550481 13.9760114,3.96125407 14.5799091,3.70547105 C14.6792273,3.66313153 14.7817841,3.62733937 14.884125,3.59176545 C14.9428523,3.57146868 15.0015795,3.5511719 15.0590114,3.52934741 C15.0955,3.51668921 15.1203295,3.50730468 15.145375,3.49792014 C15.2043182,3.47565916 15.2634773,3.45405292 15.3243636,3.43812104 L15.5685568,3.37744896 C15.6285795,3.36391778 15.6806136,3.34885888 15.7326477,3.33379998 C15.8373636,3.30368218 15.9556818,3.26963598 16.0847955,3.25545006 L16.5457614,3.17971908 C17.3426818,3.10246038 17.9649318,3.10922598 18.5267273,3.1982699 C19.2325341,3.31110251 19.8213182,3.47565916 20.3261136,3.70110615 C20.5256136,3.7718175 20.7039545,3.86697227 20.8760341,3.96081758 L20.8872614,3.94183027 L21.1657841,4.1096606 C21.1783068,4.11708093 21.1899659,4.12450125 21.2011932,4.13192158 L21.2350909,4.15265485 L21.2346591,4.15352783 L21.7910568,4.51494138 C21.8612273,4.56011808 21.9279432,4.60311232 21.980625,4.65352689 C22.0685,4.72489298 22.1572386,4.79385836 22.246625,4.86107779 C22.268,4.87766441 22.2818182,4.88748543 22.2958523,4.89752469 C22.3370909,4.92676951 22.3781136,4.95710555 22.42,4.99617139 C22.4705227,5.04527649 22.5171591,5.08805249 22.5646591,5.12995551 L22.9595568,5.49333327 C23.0271364,5.56600882 23.0945,5.63824789 23.1635909,5.70852274 C23.3013409,5.83794197 23.4203068,5.98569377 23.5353864,6.12842593 C23.5885,6.19433589 23.6411818,6.26002761 23.6964545,6.32375512 C23.7694318,6.40188679 23.8305341,6.49289492 23.8842955,6.57320904 C23.904375,6.60310859 23.9244545,6.6327899 23.9451818,6.66203471 L24.1695114,6.98067227 C24.7179205,7.82506179 25.1048295,8.78228392 25.2952614,9.7591481 C25.4522273,10.5339175 25.4658295,11.3497169 25.3356364,12.1816665 L25.253375,12.6460916 C25.2276818,12.7611067 25.1989659,12.8551703 25.1713295,12.9450872 C25.1581591,12.9880814 25.1449886,13.0302027 25.1333295,13.071451 L25.0305568,13.4180239 C25.0033523,13.5035759 24.9720455,13.5749419 24.94225,13.6415066 C24.9301591,13.6683508 24.9185,13.6941037 24.9083523,13.7194201 L24.6900682,14.2290219 L24.6414886,14.2078522 Z M17.8587045,19.1761973 C16.6338523,19.1761973 15.39475,18.9321995 14.2366136,18.462973 C14.1189432,18.4199787 14.0034318,18.3617073 13.8915909,18.3051819 C13.8376136,18.2779013 13.7832045,18.2504024 13.7279318,18.2248678 L13.3256932,18.0251737 L13.1961477,17.9474785 C13.1132386,17.895318 13.0352955,17.8486136 12.9575682,17.8019092 C12.7222273,17.6604865 12.4788977,17.5144806 12.2306023,17.3104217 C11.6349091,16.8820069 11.077,16.3396683 10.4910227,15.6161865 C10.0095455,15.0179772 9.58506818,14.2988603 9.19254545,13.4171509 L8.96109091,12.8047557 C8.90301136,12.6639877 8.86457955,12.5155812 8.82744318,12.371976 C8.80973864,12.3041019 8.79225,12.2357912 8.77173864,12.1683536 L8.68321591,11.8494978 C8.661625,11.7672194 8.64780682,11.6888695 8.63398864,11.6103013 C8.62815909,11.5758187 8.62211364,11.541336 8.61542045,11.5068533 C8.60203409,11.4298128 8.58929545,11.3615022 8.57655682,11.2929733 C8.54913636,11.1458762 8.52063636,10.9935413 8.50163636,10.8370597 C8.39692045,9.9837221 8.41613636,9.05770899 8.55885227,8.08520971 L8.74323864,7.2019726 L8.90581818,6.67927606 C8.97253409,6.4636501 9.04119318,6.2410403 9.14288636,6.02366838 L9.41881818,5.38573854 L9.42097727,5.38682976 C9.43134091,5.3636958 9.44386364,5.33968886 9.45897727,5.31437245 L9.82084091,4.65134444 C9.84329545,4.60725897 9.87697727,4.54593216 9.92901136,4.47434783 L10.4726705,3.69695949 L11.0433182,3.03065781 C11.7469659,2.29757319 12.5112841,1.69805445 13.3267727,1.23537526 C14.2053068,0.755891213 15.107375,0.413901454 16.0120341,0.216389819 C16.1944773,0.175359778 16.3784318,0.14786092 16.556125,0.121016797 L16.8225568,0.0810779806 C16.9030909,0.069074511 16.983625,0.0570710415 17.064375,0.0476865108 L17.4264545,0.0265167554 C17.5046136,0.0236795717 17.5767273,0.0193146737 17.6490568,0.0151680206 C17.8075341,0.00600173477 17.971625,-0.00360104086 18.1383068,0.00141859185 C18.3708409,0.0105848777 18.6007841,0.0206241431 18.829,0.0352465515 C19.9005568,0.146987941 20.7756364,0.351483412 21.5166364,0.661172926 C21.8627386,0.780116397 22.1781818,0.941835869 22.4834773,1.09788097 C22.5631477,1.13869277 22.6428182,1.17950457 22.7224886,1.21922514 L22.8518182,1.28535334 L22.8492273,1.29059122 C22.8632614,1.29670208 22.8775114,1.30346767 22.8921932,1.31110624 L22.892625,1.31045151 L22.8921932,1.31110624 C22.9209091,1.32616514 22.9511364,1.34406122 22.9820114,1.36479449 L23.5686364,1.75130621 C23.628875,1.79037204 23.6966705,1.83467576 23.7854091,1.90735131 L24.3916818,2.40865985 C24.4573182,2.46365756 24.5225227,2.51909177 24.5784432,2.57474422 C24.6542273,2.6504752 24.7278523,2.72686091 24.79975,2.80390136 L25.2123523,3.24541079 C25.3339091,3.39141663 25.4349545,3.52738321 25.5351364,3.66225855 L25.5971023,3.74562811 C26.1370909,4.45208685 26.4842727,5.20852368 26.7263068,5.78840038 C27.2030341,7.03545174 27.4113864,8.35474216 27.3494205,9.71899104 C27.3075341,10.9020966 27.0270682,11.8900913 26.7874091,12.6183745 L26.59525,13.1484914 C26.5479659,13.2696173 26.4983068,13.3754661 26.4505909,13.4762952 C26.4281364,13.5234361 26.4065455,13.5692676 26.3864659,13.614226 L26.2083409,13.9965911 C26.1694773,14.0808336 26.1247841,14.1574376 26.0828977,14.2290219 C26.0651932,14.2591397 26.0481364,14.2883845 26.0325909,14.3165381 L25.6800114,14.9230407 L25.3395227,15.4014335 C25.3162045,15.4326425 25.2987159,15.4579589 25.2803636,15.4841483 C25.2373977,15.5463481 25.1911932,15.6122581 25.129875,15.6849336 L24.852,16.0083726 C24.8157273,16.0489661 24.783125,16.0869407 24.7500909,16.1255701 C24.6758182,16.2122133 24.597875,16.302785 24.5119432,16.3894282 L24.1127273,16.7654641 C23.3488409,17.4455153 22.5879773,17.9485697 21.7804773,18.3093286 C21.6269659,18.3835318 21.4579091,18.4485688 21.29425,18.5118598 C21.2078864,18.5452513 21.1204432,18.578861 21.0332159,18.6148714 C20.9198636,18.6650678 20.7998182,18.699114 20.683875,18.7322872 L20.1948409,18.8726187 C19.9977159,18.9271799 19.7986477,18.9651545 19.6060568,19.0018196 C19.5078182,19.0205887 19.4087159,19.0393578 19.3093977,19.0605275 L19.287375,19.0644559 C19.0619659,19.0963197 18.8296477,19.1179259 18.6051023,19.1388774 L18.3565909,19.1624479 C18.1909886,19.1716142 18.0249545,19.1761973 17.8587045,19.1761973 L17.8587045,19.1761973 Z" id="Fill-3" fill="#FDB949"></path>
                    <path d="M4.36624318,45.8076404 C0.192072727,40.2788424 -2.39883636,27.6206381 5.08586818,22.5281116 C12.5707886,17.4358034 17.7526068,26.02003 17.7526068,26.02003 C17.7526068,26.02003 28.2393114,14.9624339 35.436425,22.0916218 C42.9269591,29.5117302 29.0509136,46.1402457 24.6606182,48.9540772 C24.6606182,48.9540772 39.5583455,29.3120361 31.6068455,24.2740708 C25.3383568,20.3026684 17.7346864,27.8751117 17.7346864,27.8751117 C17.7346864,27.8751117 11.7356523,22.0942408 6.02161818,25.6381015 C-1.8962,30.5486117 4.36624318,45.8076404 4.36624318,45.8076404" id="Fill-5" fill="#FDB949"></path>
                    <g id="Group-9" transform="translate(0.000000, 19.153391)">
                        <mask id="mask-2" fill="white">
                            <use xlink:href="#path-1"></use>
                        </mask>
                        <g id="Clip-8"></g>
                        <path d="M27.6039341,3.64846548 C29.1168091,3.64846548 30.5208659,4.04632593 31.7789682,4.84335631 C33.0638432,5.65762803 33.8603318,6.88220017 34.1459795,8.48368125 C34.7092864,11.640812 33.3218545,16.2276651 30.0225477,22.1174402 C28.6867182,24.5024205 27.2908659,26.6285623 26.2972523,28.0698516 C30.2477409,24.4247253 36.5466727,16.1861985 37.2291614,9.64649008 C37.5100591,6.95596695 36.8303773,4.77766459 35.2097636,3.17203686 C33.6351386,1.61224055 31.7662295,0.831578545 29.6535591,0.871517362 C23.8661159,0.96274373 18.0445591,7.03191617 17.9864795,7.09324299 L17.69565,7.39987707 L17.4762864,7.03737229 C17.4523205,6.99786997 15.0429909,3.07928278 11.2585364,2.24515077 C9.28750227,1.81084341 7.271775,2.2822524 5.26684318,3.64650127 C2.88169545,5.26915211 1.40055909,7.7601994 0.864240909,11.0506778 C0.135979545,15.5196786 1.31872955,20.4629256 3.11919545,24.009187 C2.67096818,22.5124635 2.17567273,20.5447674 1.90384318,18.4535448 C1.1324,12.5214302 2.49780909,8.28616962 5.85238864,6.20585922 C11.0715591,2.96841437 16.5511159,7.26129156 17.7278205,8.2783128 C18.3071045,7.74033912 19.9700364,6.28660984 22.1718773,5.14082411 C24.0831045,4.14650034 25.9114227,3.64846548 27.6039341,3.64846548 L27.6039341,3.64846548 Z M23.2948205,31.0637352 L24.4037295,29.6014943 C24.5075818,29.4642183 34.7930591,15.7981591 33.5086159,8.59978754 C33.25665,7.18730654 32.5588318,6.11026796 31.4348091,5.39813485 C25.4573659,1.61136757 18.0363545,8.88132346 17.9620818,8.95509024 L17.7386159,9.17726354 L17.5114795,8.95901864 C17.4531841,8.9029297 11.6232068,3.39551964 6.19093409,6.76369319 C-1.40323636,11.4736364 4.60400227,26.3786719 4.66553636,26.5288244 L5.61985455,28.8542238 L4.10892273,26.852918 C1.46187727,23.3468137 -0.722043182,16.7566907 0.22515,10.9441743 C0.783490909,7.51772932 2.40172955,4.80647292 4.90497955,3.10328972 C7.06385455,1.63450153 9.24907045,1.13101055 11.4006045,1.60634794 C14.8128318,2.36038407 17.1012523,5.32589578 17.8038205,6.35099208 C19.0720705,5.09652039 24.2670591,0.301679926 29.6434114,0.21678266 C31.9281614,0.179462782 33.9598659,1.0175232 35.6629568,2.70455628 C37.4321159,4.45706283 38.1759227,6.81585372 37.8732182,9.71523722 C37.0378659,17.7200237 28.4069,27.7872245 24.8342523,30.07705 L23.2948205,31.0637352 Z" id="Fill-7" fill="#FDB949" mask="url(#mask-2)"></path>
                    </g>
                    <path d="M6.99359773,42.858388 C7.09723409,43.2294043 7.21771136,43.5908179 7.35956364,43.9404462 C7.56726818,44.4461196 7.80887045,44.9297503 8.09279091,45.3815173 C8.65631364,46.2865789 9.36795,47.0733517 10.1847341,47.7023335 C11.00195,48.3306606 11.9189159,48.8053433 12.8846773,49.0940813 C13.36745,49.2374682 13.8605864,49.342444 14.3597682,49.3919856 C14.4849955,49.4004971 14.6093591,49.417302 14.7343705,49.4245041 L15.1081091,49.4393447 L15.4624159,49.436944 L15.8624955,49.4140283 C16.8645295,49.3387338 17.8475636,49.074221 18.7571886,48.6386042 C19.6681091,48.2042968 20.5028136,47.5938658 21.2155295,46.8470318 C21.9278136,46.099543 22.5122795,45.2121592 22.9328705,44.2307119 C23.1451091,43.7403156 23.3111432,43.2252577 23.4402568,42.6933948 C23.4685409,42.5600472 23.5017909,42.4262631 23.5270523,42.2909512 L23.5950636,41.8828333 L23.6237795,41.6733182 C23.4909955,41.7806947 23.3573477,41.8861069 23.2200295,41.9893368 C22.9028591,42.2276602 22.5774841,42.4537619 22.2441205,42.6678602 C21.5776091,43.0951837 20.8817341,43.4775488 20.1573591,43.79946 C19.7961432,43.9624889 19.4265068,44.1071853 19.0519045,44.2376957 C18.6781659,44.3710434 18.2953591,44.4788564 17.9106091,44.5764118 C17.5243477,44.6702571 17.1335523,44.7455516 16.7393023,44.8007676 C16.5417455,44.8271752 16.3450523,44.8489997 16.1449045,44.8662411 C15.9438932,44.8793358 15.7392114,44.8963589 15.5483477,44.8970136 C15.1499955,44.910763 14.7579045,44.8937399 14.3630068,44.8764986 C13.9694045,44.8505274 13.5758023,44.8201914 13.1850068,44.7684673 C12.4025523,44.6711301 11.6270068,44.5220688 10.8639841,44.3263032 C10.1003136,44.1329382 9.34938182,43.8904681 8.61356364,43.6082775 C8.24587045,43.4666365 7.88206364,43.3140833 7.52279091,43.1501814 C7.34876818,43.069649 7.17755227,42.9884619 7.00676818,42.9031282 L6.99359773,42.858388 Z M24.2315636,41.0122544 C24.2611432,41.1549865 24.2889955,41.2977187 24.3144727,41.4406691 L24.3734159,41.8972374 C24.3991091,42.2005978 24.4112,42.5035218 24.408825,42.8103741 C24.4027795,43.4227693 24.3213818,44.0382199 24.1786659,44.6431948 C23.8908591,45.8529263 23.3335977,47.0113702 22.5615068,48.013769 C21.7896318,49.0168226 20.7981773,49.8590296 19.6750182,50.4666235 C19.1138705,50.7717298 18.5175295,51.011581 17.9054273,51.1953432 C17.2913818,51.3738675 16.6594159,51.4875731 16.0239955,51.5410431 L15.5701545,51.5626493 L15.0694614,51.5628676 C14.7458136,51.5519553 14.4301545,51.5305673 14.1123364,51.4895373 C13.4795068,51.4022393 12.8540182,51.2571065 12.2533591,51.0421353 C11.0516091,50.6148117 9.94464318,49.9351971 9.03048409,49.0630905 C8.116325,48.1914204 7.39065455,47.1324961 6.92364318,45.9812543 C6.69154091,45.405306 6.51816591,44.8094974 6.41971136,44.2051773 C6.31845,43.6019483 6.28152955,42.9930451 6.32276818,42.3939628 L6.36227955,41.8186693 L6.73018864,42.1366521 L6.73062045,42.1368703 C7.04995,42.3199778 7.40080227,42.4915183 7.74647273,42.6508371 C8.09495,42.8099376 8.448825,42.9583441 8.80658636,43.0960567 C9.52275682,43.370827 10.2540409,43.606968 10.9967682,43.7950951 C11.7390636,43.9854046 12.4925864,44.1303193 13.2515068,44.2246011 C13.6306432,44.2750156 14.0119386,44.3040422 14.3930182,44.3293586 C14.7736659,44.3459452 15.1582,44.3625318 15.5362568,44.3492189 C15.7338136,44.3483459 15.9162568,44.3315411 16.1028023,44.3197558 C16.2893477,44.3038239 16.4789159,44.2826542 16.6661091,44.2577743 C17.0411432,44.2053955 17.4138023,44.1333747 17.7827909,44.0438943 C18.1507,43.9504855 18.5168818,43.8474739 18.8757227,43.7193641 C19.2352114,43.5943098 19.5905977,43.4552878 19.9384273,43.2979332 C20.6358136,42.9882437 21.3085864,42.6187551 21.9532909,42.2053992 C22.2754273,41.9985031 22.5902227,41.7796034 22.8963818,41.5497915 C23.2005977,41.3212891 23.5045977,41.0755454 23.7751318,40.8269644 L24.1266318,40.5037437 L24.2315636,41.0122544 Z" id="Fill-10" fill="#FDB949"></path>
                    <g id="Group-14" transform="translate(5.829545, 39.668411)">
                        <mask id="mask-4" fill="white">
                            <use xlink:href="#path-3"></use>
                        </mask>
                        <g id="Clip-13"></g>
                        <path d="M1.71528977,3.85008012 C1.75221023,3.951564 1.79042614,4.05086542 1.82950568,4.14776616 C2.03764205,4.65409433 2.27578977,5.12222964 2.53660795,5.53754969 C3.08026705,6.41052929 3.75800568,7.16238297 4.55147159,7.77368694 C5.34515341,8.38389968 6.21850568,8.83413891 7.14691477,9.11174643 C7.63486932,9.25666104 8.11094886,9.35312529 8.56198295,9.39764725 C8.61315341,9.40113916 8.67425568,9.40703178 8.73557386,9.41314263 C8.79797159,9.41947174 8.86036932,9.42558259 8.92276705,9.42907451 L9.29132386,9.44369692 L9.63051705,9.44107798 L10.0146193,9.418817 C10.9728239,9.34657794 11.908142,9.09603279 12.7890511,8.67438364 C13.6649943,8.25688115 14.4601875,7.67722269 15.1530398,6.95134015 C15.8445966,6.22545761 16.4009943,5.37779442 16.8064716,4.43213927 C17.0020852,3.97993583 17.166392,3.4805915 17.2959375,2.94698272 L17.3265966,2.8088337 C17.3298352,2.79442953 17.3330739,2.78024361 17.3363125,2.76583945 C17.092767,2.94196308 16.8420966,3.11284884 16.5884034,3.27565954 C15.8847557,3.72677175 15.1681534,4.11524767 14.4580284,4.43061155 C14.1091193,4.58840262 13.7282557,4.73942809 13.3277443,4.87888658 C12.9939489,4.99783005 12.6221534,5.10826197 12.159892,5.22567773 C11.7557102,5.32366969 11.3510966,5.40114663 10.9540398,5.45658083 C10.7495739,5.48386144 10.5479148,5.50634067 10.3428011,5.5240185 L10.2162784,5.53253006 C10.0524034,5.54387879 9.88291477,5.55544577 9.71990341,5.55588226 C9.31313068,5.56984993 8.90959659,5.5521721 8.51944886,5.53514899 C8.13059659,5.50961434 7.72080114,5.47862356 7.31316477,5.42471707 C6.53373295,5.32781634 5.73961932,5.17657262 4.95478977,4.97535082 C4.20385795,4.78504127 3.43457386,4.53951576 2.66917614,4.24575812 C2.34811932,4.12223151 2.02792614,3.98953861 1.71528977,3.85008012 L1.71528977,3.85008012 Z M0.813221591,2.79399304 C0.779971591,3.33502215 0.812142045,3.90267714 0.909301136,4.48211735 C1.00127841,5.04562568 1.16428977,5.61939153 1.39401705,6.18922896 C1.84094886,7.29071097 2.54265341,8.3168985 3.42313068,9.15648663 C4.30123295,9.99411056 5.3758125,10.6540831 6.53157386,11.06482 C7.08646023,11.2636411 7.69014205,11.408774 8.32664205,11.4967267 C8.60494886,11.5325189 8.90808523,11.5558711 9.25051705,11.5672198 L9.74041477,11.5667833 L10.179142,11.5456136 C10.7931875,11.4936713 11.4050739,11.3812751 11.9860852,11.2123536 C12.5984034,11.0285914 13.1731534,10.7920139 13.691983,10.5098233 C14.7728239,9.92514517 15.7353466,9.10738153 16.4763466,8.14426678 C17.2201534,7.17875134 17.7588466,6.05631782 18.0343466,4.89831037 C18.1753352,4.29944637 18.2498239,3.70712971 18.2554375,3.13860174 C18.2575966,2.84549884 18.2459375,2.54846753 18.2213239,2.25689234 L18.163892,1.81472817 C18.1606534,1.79748683 18.1574148,1.78024548 18.154392,1.76256764 L18.0863807,2.25929304 L18.016858,2.67701378 C17.9989375,2.77391451 17.9784261,2.86448615 17.9579148,2.95462129 L17.9270398,3.09407978 C17.7869148,3.67286526 17.6103011,4.20800175 17.4002216,4.69359666 C16.9643011,5.7101814 16.3651534,6.62309982 15.6191875,7.40572604 C14.8717102,8.18900699 14.012392,8.81515161 13.0656307,9.26626382 C12.1130398,9.72239566 11.100858,9.99345582 10.0569375,10.0722422 L9.65102841,10.0953762 L9.28074432,10.0982134 L8.89189205,10.0831545 C8.81524432,10.0787896 8.7435625,10.0718057 8.67209659,10.0648219 C8.6176875,10.0593658 8.56327841,10.0539097 8.50886932,10.0501995 C8.00752841,10.0006579 7.49107386,9.89655509 6.96382386,9.739637 C5.95919886,9.43933202 5.01589205,8.95330063 4.15894886,8.29463752 C3.30351705,7.63553792 2.57352841,6.82584934 1.9890625,5.88739626 C1.70902841,5.44152193 1.45382386,4.93977691 1.23100568,4.39765657 C1.08958523,4.04890122 0.962414773,3.67286526 0.852517045,3.27893321 L1.20488068,3.17832231 L1.27397159,3.03711786 C1.10599432,2.95309357 0.954426136,2.8729977 0.813221591,2.79399304 L0.813221591,2.79399304 Z M9.24015341,12.2217363 C8.86641477,12.2095145 8.54341477,12.1846346 8.24178977,12.145787 C7.55865341,12.0515052 6.91157386,11.8956784 6.31588068,11.6822349 C5.07613068,11.2413802 3.92188068,10.532739 2.97878977,9.632697 C2.03159659,8.72981785 1.27634659,7.62462567 0.7944375,6.43715517 C0.546357955,5.8214863 0.370176136,5.20036132 0.270642045,4.59014857 C0.162471591,3.94458016 0.128357955,3.30905101 0.170244318,2.70298492 L0.253801136,1.47906752 L1.08742614,2.19862095 C1.35169886,2.34899169 1.65915341,2.50394557 2.05124432,2.68465235 C2.38978977,2.83916974 2.74042614,2.9862668 3.09214205,3.12179688 C3.81435795,3.39874966 4.53916477,3.63008926 5.24605114,3.80905008 C5.9838125,3.9982684 6.72891477,4.14034583 7.46127841,4.23135396 C7.81515341,4.27827661 8.16600568,4.3064302 8.58465341,4.33436555 C8.9454375,4.35007918 9.32738068,4.3666658 9.69528977,4.3535711 C9.84836932,4.35291637 9.98288068,4.34331359 10.1171761,4.33392906 L10.2531989,4.32476278 C10.4276534,4.30948563 10.6120398,4.28897061 10.794483,4.26474543 C11.1513807,4.21476735 11.5166989,4.14492898 11.877483,4.05719453 C12.2995852,3.95003628 12.6376989,3.84964363 12.9380284,3.74226714 C13.3132784,3.61175668 13.6520398,3.47731783 13.9765511,3.3308755 C14.6337784,3.03886382 15.2970511,2.67919622 15.9501761,2.26060251 C16.263892,2.05938071 16.5745852,1.84331826 16.8738352,1.61852601 C17.199858,1.37365523 17.487233,1.137296 17.7277557,0.916432162 L18.4981193,0.20779097 L18.7189943,1.27675449 C18.7494375,1.42254209 18.7777216,1.56854793 18.8036307,1.71455376 L18.8651648,2.18639924 C18.893233,2.51267537 18.9053239,2.83000345 18.9031648,3.14427611 C18.8971193,3.76256391 18.8165852,4.40376743 18.6641534,5.05064531 C18.3670625,6.29944264 17.7871307,7.5080829 16.9874034,8.54649213 C16.1913466,9.58119121 15.1577898,10.4596269 13.998358,11.0868628 C13.4413125,11.3897867 12.8253239,11.6433873 12.1678807,11.8406807 C11.5434716,12.0224787 10.889267,12.1427316 10.2212443,12.1988205 L9.75574432,12.2210815 L9.24015341,12.2217363 Z" id="Fill-12" fill="#FDB949" mask="url(#mask-4)"></path>
                    </g>
                    <path d="M7.58352614,37.4174553 C7.11349205,37.4176735 6.85871932,37.8967211 6.76652614,38.094451 C6.67476477,38.2928356 6.61409432,38.5206833 6.57933295,38.7572607 C6.54284432,38.9931835 6.52794659,39.2446016 6.5424125,39.486417 L6.33621932,39.5353038 C6.24488977,39.2819215 6.1837875,39.0254837 6.14859432,38.7548601 C6.11750341,38.4853276 6.11340114,38.2046647 6.16133295,37.9159267 C6.21185568,37.6293711 6.31786705,37.3312486 6.50765114,37.0680452 C6.60200341,36.9375348 6.71298068,36.8142264 6.8392875,36.7096871 C6.86994659,36.6821882 6.9034125,36.6594908 6.93579886,36.6343926 L6.98524205,36.5977275 L7.04850341,36.5604076 L7.12925341,36.5113025 C7.17308295,36.4901327 7.22101477,36.4687447 7.26765114,36.4491027 C7.44858295,36.3777366 7.62973068,36.3364883 7.82901477,36.3369248 C8.0244125,36.3382343 8.21657159,36.3797008 8.38800341,36.4456108 C8.73518523,36.5789584 8.99211705,36.7926202 9.21061705,37.0099921 C9.37017386,37.1728028 9.50986705,37.3425973 9.63509432,37.5171932 L9.64632159,37.5329069 C9.82919659,37.3958491 10.0142307,37.2771238 10.2020716,37.1666919 C10.6757761,36.8912668 11.1674011,36.6725855 11.680617,36.5089018 C12.1931852,36.347837 12.7301511,36.2387146 13.2850375,36.2509363 C13.5614011,36.2581384 13.8425148,36.2982955 14.1115375,36.3917043 C14.3801284,36.4842401 14.6338216,36.6346108 14.8350489,36.8334319 L14.5837307,37.1389748 C13.9493898,36.7941479 12.7286398,36.8124804 11.4448443,37.3511089 C10.1327648,37.9017407 9.3472875,39.0110796 9.3472875,39.0110796 C9.3472875,39.0110796 8.37699205,37.4170188 7.58352614,37.4174553" id="Fill-15" fill="#FDB949"></path>
                    <path d="M7.58385,37.0900661 C8.28900909,37.0900661 8.99805455,37.9324914 9.37546364,38.4647908 C9.73192955,38.0682398 10.4027591,37.4340201 11.3208045,37.0488178 C12.0168955,36.7565879 12.7261568,36.5990151 13.3544523,36.581119 C13.3285432,36.5800278 13.3026341,36.5789366 13.2765091,36.5782818 C12.81835,36.5691155 12.3299636,36.6474655 11.7768045,36.8216249 C11.2897136,36.976797 10.81385,37.1887128 10.3636795,37.4503885 C10.1672023,37.56584 9.99533864,37.6791091 9.83902045,37.7958701 L9.57561136,37.9933818 L9.38366818,37.7245041 C9.24958864,37.5370317 9.12112273,37.3838238 8.98078182,37.2406551 C8.80675909,37.0673687 8.58437273,36.8713847 8.27281591,36.7515683 C8.12686136,36.6952611 7.97248636,36.6651433 7.82696364,36.6642703 C7.69007727,36.6688535 7.54196364,36.6924239 7.38542955,36.753969 C7.35455455,36.7670637 7.31785,36.783432 7.28244091,36.8000187 L7.09611136,36.9217993 C7.08207727,36.9322751 7.06739545,36.9425326 7.05400909,36.954536 C6.94540682,37.0451077 6.85278182,37.1452821 6.76944091,37.2609519 C6.63514545,37.4471148 6.54144091,37.6686334 6.49027045,37.9200515 C6.75065682,37.3842603 7.13756591,37.0902844 7.58341818,37.0900661 L7.58385,37.0900661 Z M6.12991818,39.9207025 L6.03167955,39.6470234 C5.93300909,39.3722531 5.86607727,39.0944273 5.82742955,38.7976142 C5.78835,38.4597711 5.79331591,38.1551012 5.84189545,37.8617801 C5.90817955,37.4861806 6.04398636,37.1553214 6.24607727,36.8753131 C6.36180455,36.7146849 6.49221364,36.5739169 6.63385,36.4567194 C6.65263409,36.4394781 6.68199773,36.4169989 6.71200909,36.3947379 L6.98880455,36.2162135 C7.03781591,36.1926431 7.09114545,36.1686362 7.14317955,36.1468117 C7.3796,36.0536211 7.60025909,36.0095356 7.82502045,36.0095356 L7.82977045,36.0095356 C8.05302045,36.0110633 8.28555455,36.0560218 8.50319091,36.1398278 C8.92939545,36.3035115 9.22648636,36.5662784 9.43786136,36.7768847 C9.53545227,36.8761861 9.62699773,36.9783247 9.71465682,37.0859195 C9.81656591,37.0184818 9.92430455,36.9512624 10.0396,36.8838247 C10.5310091,36.5977056 11.0502705,36.3668025 11.5831341,36.1965715 C12.2060318,36.0010241 12.763725,35.9113254 13.2920545,35.9237654 C13.6288727,35.9324952 13.9395659,35.9857469 14.2170091,36.0822112 C14.5393614,36.1930796 14.8317023,36.3720404 15.0616455,36.5994516 L15.2751795,36.8107127 L14.6635091,37.5538365 L14.4305432,37.4272545 C13.9430205,37.1625234 12.8401568,37.1201839 11.5691,37.6535745 C10.3563386,38.1625216 9.61814545,39.1911098 9.61080455,39.2015855 L9.32731591,39.6018467 L9.07167955,39.1828165 C8.707225,38.5856984 8.00487273,37.7448008 7.58385,37.7448008 C7.33879318,37.7448008 7.16369091,38.0108414 7.05940682,38.2338877 C6.98578182,38.3934247 6.93180455,38.5859167 6.89963409,38.8052528 C6.86487273,39.030918 6.85321364,39.2587657 6.86573636,39.4665348 L6.88236136,39.7419599 L6.12991818,39.9207025 Z" id="Fill-17" fill="#FDB949"></path>
                    <path d="M23.7391182,38.1300249 C23.7391182,38.1300249 21.908425,33.6904871 17.9199364,36.0414212 C15.7735841,37.3063686 14.4677659,40.3506668 14.6806523,42.2173154 L15.0064591,42.2096768 C15.0064591,42.2096768 15.5259364,38.3319014 18.1403795,37.1044921 C21.3515955,35.5968563 22.1569364,38.56586 22.3847205,38.992747 L23.7391182,38.1300249 Z" id="Fill-19" fill="#FDB949"></path>
                    <path d="M20.1460023,35.6827794 C19.4980591,35.6827794 18.8075818,35.8968776 18.0829909,36.3239829 C16.8780023,37.03437 15.9375023,38.3549699 15.4212636,39.6838631 C15.9156955,38.5863095 16.7199568,37.410406 18.0039682,36.8076136 C19.0450818,36.318745 19.9665818,36.224245 20.742775,36.5269506 C21.7856159,36.9335409 22.2891159,37.9525263 22.5302864,38.5131975 L23.3211614,38.0094882 C23.0450136,37.4798079 22.2889,36.2502161 21.0422409,35.8290034 C20.7537864,35.731448 20.4547523,35.6827794 20.1460023,35.6827794 L20.1460023,35.6827794 Z M14.3928886,42.5513829 L14.3589909,42.2547881 C14.1316386,40.2633033 15.4711386,37.1057361 17.7567523,35.7585103 C18.9965023,35.0278264 20.1721273,34.8431912 21.2523205,35.2096244 C23.1298659,35.8468995 24.0017068,37.9162977 24.0379795,38.0040321 L24.1433432,38.2595969 L22.2642864,39.4566702 L22.0997636,39.1480719 C22.0734227,39.0985303 22.039525,39.0193074 21.9969909,38.91826 C21.8026727,38.4527436 21.3978432,37.4841728 20.5095932,37.1378181 C19.9037523,36.9014589 19.1521727,36.9902846 18.2768773,37.401458 C15.8565364,38.5376409 15.3323091,42.2168134 15.3273432,42.2536968 L15.289775,42.5302131 L14.3928886,42.5513829 Z" id="Fill-21" fill="#FDB949"></path>
                </g>
            </g>
        </g>
    </g>
</svg>